<svg xmlns="http://www.w3.org/2000/svg" viewBox="0 0 500 500"><g id="freepik--character-1--inject-16"><path d="M205.7,442c-2.07.69-61.34.52-63.6-.91-.85-.54-1.33-9.18-1.61-19.63-.07-2.25-.11-4.58-.15-6.95,0-2.8-.08-5.64-.1-8.4-.07-12.38.1-23.28.1-23.28h38.59l0,23.28v8.4l-.2,6.95s22.66,10.22,25,12.06S207.77,441.36,205.7,442Z" style="fill: rgb(235, 148, 129);"></path><path d="M205.7,442c-2.07.69-61.34.52-63.6-.91-.85-.54-1.33-9.18-1.61-19.63-.07-2.25-.11-4.58-.15-6.95,0-2.8-.08-5.64-.1-8.4h38.67v8.4l-.2,6.95s22.66,10.22,25,12.06S207.77,441.36,205.7,442Z" style="fill:#fff"></path><path d="M205.88,442.13c-1.35.45-26.59.54-45,.16-4.26-.1-8.15-.21-11.28-.35-4.33-.2-7.23-.43-7.7-.73-1.05-.67-1.54-13.35-1.78-26.73h38.77l-.2,7s22.79,10.28,25.11,12.13S208,441.43,205.88,442.13Z" style="fill:#407BFF"></path><path d="M205,439.75c-10-.28-50.3-.44-60.2.05-.08,0-.08.05,0,.06,9.9.49,50.21.32,60.2.05C205.24,439.9,205.25,439.75,205,439.75Z" style="fill:#263238"></path><path d="M180.14,419.26c-3.93-.74-8.74-.15-11.75,2.64-.12.11,0,.27.17.23a54.78,54.78,0,0,1,11.57-2.37A.25.25,0,0,0,180.14,419.26Z" style="fill:#263238"></path><path d="M183,421c-3.93-.75-8.74-.16-11.76,2.64-.11.1,0,.27.17.23A54.91,54.91,0,0,1,183,421.48.25.25,0,0,0,183,421Z" style="fill:#263238"></path><path d="M185.81,422.7c-3.93-.75-8.74-.16-11.75,2.63-.12.11,0,.28.16.24a55.7,55.7,0,0,1,11.57-2.38A.25.25,0,0,0,185.81,422.7Z" style="fill:#263238"></path><path d="M188.64,424.42c-3.93-.75-8.74-.16-11.75,2.63-.12.11,0,.28.17.24a54.83,54.83,0,0,1,11.56-2.38A.25.25,0,0,0,188.64,424.42Z" style="fill:#263238"></path><path d="M187.43,410.19c-1.54-2.13-4.42-1.18-6.06.19a21,21,0,0,0-6.08,9,.1.1,0,0,0,.09.14c0,.3.28.62.61.49,3.25-1.19,6.88-2.06,9.66-4.22C187.28,414.53,188.89,412.21,187.43,410.19Zm-6.88,7c-1.58.62-3.19,1.17-4.75,1.85a62,62,0,0,1,3.67-5.17,21.07,21.07,0,0,1,2.09-2.24c1.17-1.07,5.81-3.32,5.1,1C186.27,415,182.44,416.44,180.55,417.19Z" style="fill:#263238"></path><path d="M165.3,418.31c3.23,1.39,7,1.33,10.4,1.68a.5.5,0,0,0,.48-.63.1.1,0,0,0,0-.16A21,21,0,0,0,168.1,412c-1.94-.92-5-1.12-5.92,1.33S163.41,417.5,165.3,418.31Zm-1.77-2.8c-1.76-4,3.29-3,4.69-2.25a24.22,24.22,0,0,1,2.59,1.66,60.82,60.82,0,0,1,4.84,4.09c-1.68-.27-3.37-.4-5.06-.61C168.57,418.15,164.5,417.71,163.53,415.51Z" style="fill:#263238"></path><path d="M184.41,411.76l-47.82.86S130.08,370.31,125.8,344c-1.62-9.89-2.9-17.53-3.42-19.83-1.24-5.49-25.47-92.63-25.47-92.63l34.76-.05h11.88s-.76,14.57-.31,16.1c6.2,21.09,18.87,58.49,22.83,71.52C172.14,339.14,184.41,411.76,184.41,411.76Z" style="fill:#a6a6a6"></path><path d="M180.06,404.43c-6.86-.05-31.2-.32-40.34.53a.07.07,0,0,0,0,.13c3.15.45,33.48-.25,40.35-.47A.1.1,0,1,0,180.06,404.43Z" style="fill:#263238"></path><path d="M137.37,368.37q-2.48-16.41-5.53-32.74c-1-5.35-2.09-10.69-3.49-16s-3.18-10.56-5-15.77c-3.58-10.36-7-20.77-10.21-31.25s-6.2-21-9-31.61c-.36-1.34-.71-2.68-1.1-4,0-.11-.19-.06-.17,0,1.09,5.34,2.5,10.63,3.85,15.91s2.8,10.54,4.31,15.78q4.56,15.78,9.89,31.34c1.77,5.16,3.61,10.31,5.18,15.54s2.79,10.53,3.88,15.87c2.21,10.84,4.09,21.75,5.83,32.66s3.23,22,4.69,33c.19,1.39.37,2.79.55,4.19.05.39.67.39.63,0C140.55,390.32,139,379.33,137.37,368.37Z" style="fill:#263238"></path><path d="M131.67,231.47,125.8,344c-1.62-9.89-2.9-17.53-3.42-19.83-1.24-5.49-25.47-92.63-25.47-92.63Z" style="fill:#263238"></path><path d="M146.39,451.48c-2.07.69-61.34.52-63.6-.92-.85-.53-1.33-9.17-1.61-19.62-.07-2.26-.11-4.58-.15-6.95,0-2.81-.08-5.64-.1-8.4-.07-12.38.1-23.28.1-23.28h38.58V424l-.2,6.95s22.66,10.22,25,12.06S148.46,450.8,146.39,451.48Z" style="fill: rgb(235, 148, 129);"></path><path d="M146.39,451.48c-2.07.69-61.34.52-63.6-.92-.85-.53-1.33-9.17-1.61-19.62-.07-2.26-.11-4.58-.15-6.95,0-2.81-.08-5.64-.1-8.4H119.6V424l-.2,6.95s22.66,10.22,25,12.06S148.46,450.8,146.39,451.48Z" style="fill:#fff"></path><path d="M146.57,451.57c-1.35.44-26.6.53-45,.15-4.25-.09-8.14-.21-11.28-.34-4.32-.2-7.22-.44-7.7-.74-1-.67-1.54-13.34-1.77-26.72h38.77l-.2,7S142.2,441.19,144.52,443,148.65,450.87,146.57,451.57Z" style="fill:#407BFF"></path><path d="M145.72,449.18c-10-.27-50.31-.44-60.2.05-.08,0-.08.06,0,.07,9.89.48,50.21.32,60.2.05C145.93,449.34,145.93,449.19,145.72,449.18Z" style="fill:#263238"></path><path d="M120.83,428.7c-3.93-.75-8.74-.16-11.75,2.63-.12.11,0,.28.16.24a55.7,55.7,0,0,1,11.57-2.38A.25.25,0,0,0,120.83,428.7Z" style="fill:#263238"></path><path d="M123.66,430.42c-3.93-.75-8.74-.16-11.75,2.63-.12.11,0,.28.17.24a54.8,54.8,0,0,1,11.57-2.38A.25.25,0,0,0,123.66,430.42Z" style="fill:#263238"></path><path d="M126.5,432.13c-3.93-.74-8.74-.15-11.76,2.64-.11.11,0,.27.17.23a55.54,55.54,0,0,1,11.57-2.37A.25.25,0,0,0,126.5,432.13Z" style="fill:#263238"></path><path d="M129.33,433.85c-3.93-.74-8.74-.15-11.75,2.64-.12.11,0,.27.16.23a55.68,55.68,0,0,1,11.57-2.37A.25.25,0,0,0,129.33,433.85Z" style="fill:#263238"></path><path d="M128.12,419.63c-1.54-2.14-4.42-1.19-6.07.19a21,21,0,0,0-6.08,9,.11.11,0,0,0,.1.14.48.48,0,0,0,.61.49c3.25-1.19,6.87-2.06,9.66-4.22C128,424,129.57,421.64,128.12,419.63Zm-6.88,7c-1.59.63-3.19,1.17-4.75,1.86,1.19-1.75,2.3-3.54,3.66-5.17a23.48,23.48,0,0,1,2.09-2.25c1.18-1.06,5.81-3.31,5.11,1C127,424.44,123.13,425.88,121.24,426.62Z" style="fill:#263238"></path><path d="M106,427.75c3.24,1.39,7,1.33,10.41,1.68a.49.49,0,0,0,.47-.64.11.11,0,0,0,.06-.16,21.09,21.09,0,0,0-8.13-7.18c-1.94-.92-5-1.12-5.92,1.33S104.09,426.94,106,427.75Zm-1.76-2.81c-1.76-4,3.29-3,4.69-2.24a22.67,22.67,0,0,1,2.59,1.65,63.13,63.13,0,0,1,4.84,4.1c-1.69-.28-3.38-.4-5.07-.61C109.26,427.59,105.19,427.15,104.22,424.94Z" style="fill:#263238"></path><path d="M125,420.63H78.21s10.17-145.08,8.53-153.21c-2.69-13.31-.9-28.6,5.4-36h41.63s.83,11.68-3.47,18.66c0,0-3.91,2.47-5.8,3.56Z" style="fill:#a6a6a6"></path><path d="M120.64,413.06c-6.48-.16-4.61-.21-11.1-.3-3.17-.05-24-.34-27,.13-.07,0-.07.12,0,.13,3,.51,23.82.44,27,.42,6.48,0,4.62-.09,11.1-.19A.1.1,0,0,0,120.64,413.06Z" style="fill:#263238"></path><path d="M132.9,248.25a80,80,0,0,0-11.71,6.93.13.13,0,0,0,.14.23c4-2.19,8-4.31,11.84-6.71A.26.26,0,0,0,132.9,248.25Z" style="fill:#263238"></path><path d="M127.59,247.65a20.39,20.39,0,0,0-.56,2.46,5.31,5.31,0,0,0-.13,2c0,.13.21.12.27,0a6.92,6.92,0,0,0,.64-2c.2-.77.42-1.53.59-2.3C128.52,247.32,127.75,247.15,127.59,247.65Z" style="fill:#263238"></path><path d="M127.22,243.64c.11-.7.22-1.39.35-2.08s.31-1.44.38-2.16c0-.12.2-.08.18,0-.11.7-.12,1.42-.18,2.12s-.12,1.41-.19,2.11a39.67,39.67,0,0,1-.62,3.93,4.72,4.72,0,0,0,1.92-.79,3.7,3.7,0,0,0,1-2c.2-.8.38-1.6.59-2.4a15.09,15.09,0,0,0,.61-2.66c0-.12.2-.08.18,0a28.19,28.19,0,0,1-1.06,5.61,3.08,3.08,0,0,1-1.05,1.86,6.05,6.05,0,0,1-2.33.69c-.09,0-.23,0-.22-.11A41.66,41.66,0,0,1,127.22,243.64Z" style="fill:#263238"></path><path d="M93.5,266.89c-.3-3.06-.8-6.1-1.13-9.16a57,57,0,0,1,1.1-18.32c0-.11-.15-.16-.17,0a68,68,0,0,0-1.64,16.08c.27,5.4,1.23,10.72,1.31,16.13s-.34,10.95-.69,16.41-.71,11-1.06,16.49c-1.42,22.09-2.73,44.18-4.08,66.28q-.56,9.24-1.08,18.5c-.36,6.27-.8,12.55-1,18.84,0,.54.78.5.83,0,.94-11.09,1.48-22.22,2.19-33.31s1.34-22,2-33,1.33-22,2-33q.48-8.24,1-16.48c.32-5.47.72-10.95.8-16.43A79.81,79.81,0,0,0,93.5,266.89Z" style="fill:#263238"></path><path d="M108.24,239a.1.1,0,0,0-.17,0,7.23,7.23,0,0,0-.39,2.25,16.68,16.68,0,0,1-.57,2.42,9.65,9.65,0,0,1-2.5,4.2c-2.62,2.45-6.13,3.36-9.51,4.18a.11.11,0,0,0,0,.21,15.05,15.05,0,0,0,5.9-.92,12.27,12.27,0,0,0,4.55-2.55,8.46,8.46,0,0,0,2.46-4.45,14.3,14.3,0,0,0,.28-2.7c0-.43,0-.86,0-1.3A3.43,3.43,0,0,0,108.24,239Z" style="fill:#263238"></path><path d="M127.84,182.88c.86,6.8,14.18,32.08,28.36,43.28,5.2,4.11,32.77,6.54,39.67,6,8.07-.62,9.28-19.83,4.76-21.33-5.65-1.87-31.79-4.18-36.92-6-6.24-2.26-17.6-16.77-28.4-25.75C129.76,174.43,127.18,177.65,127.84,182.88Z" style="fill: rgb(235, 148, 129);"></path><path d="M195.87,232.17c2.55-.07,14.22-1.41,17.39-2.51s12-4.92,11.44-7.43-3.28-1.6-3.28-1.6,3.49-2.21,2.66-4.68-5-.91-5-.91,3.42-2.53,2.41-4.94-4.9-.14-4.9-.14,3.24-2.17,1.58-3.81c-2-2-7.52,2.71-11.1,3.66-.82.22-16.82,3.21-16.82,3.21Z" style="fill: rgb(235, 148, 129);"></path><path d="M217,209.77c-4.07,3.42-6.44,4.22-11.62,4.93a.09.09,0,0,0,0,.17c5.13-.24,8.25-.81,11.79-4.91C217.32,209.76,217.16,209.61,217,209.77Z" style="fill:#263238"></path><path d="M219.43,214.76C214.9,218,212.34,218.83,207,220c-.07,0-.05.15,0,.14,5.36-.69,8.46-1.33,12.57-5.11C219.74,214.84,219.64,214.61,219.43,214.76Z" style="fill:#263238"></path><path d="M221.14,220.68c-4.61,2.77-7.38,3.86-12.74,4.31a.1.1,0,0,0,0,.2,17.85,17.85,0,0,0,12.8-4.36C221.47,220.62,221.43,220.51,221.14,220.68Z" style="fill:#263238"></path><path d="M186.55,210.92a65.62,65.62,0,0,1,8.43-4.61c2.82-1,14.72-1,14.85,1.58.18,3.32-6.69,4.65-10.14,4.87,0,0,.43,7.67-4.3,9.7S186.55,210.92,186.55,210.92Z" style="fill: rgb(235, 148, 129);"></path><path d="M209.59,208.82c-2,3.14-6.57,3.13-9.9,3.59a.3.3,0,0,0-.25.44c0,3.23-1,7.77-3.85,9.68-.09.06,0,.19.07.14,3.31-1.64,4.65-6,4.46-9.57,3.42-.41,8-.6,9.5-4.27C209.63,208.81,209.6,208.8,209.59,208.82Z" style="fill:#263238"></path><path d="M172.05,231.8s-14.12-3.86-15.84-5.21a61.76,61.76,0,0,1-5.36-4.74C138,209.22,130.24,192,128.14,186c-2.22-6.39-.18-12.51,5.77-8.39a16.74,16.74,0,0,1,1.38,1.09c7,6.1,25.72,24.65,28,25.6s13.27,2.39,13.27,2.39Z" style="fill:#455a64"></path><path d="M150.85,221.85C138,209.22,130.24,192,128.14,186c-2.22-6.39-.18-12.51,5.77-8.39Z" style="fill:#263238"></path><path d="M172,206.25a52.43,52.43,0,0,0-1.63,5.89c-.49,2-1,4-1.41,6a106.62,106.62,0,0,0-2,11.89.09.09,0,0,0,.18,0c1.08-3.92,1.88-7.93,2.7-11.91.41-2,.78-3.94,1.19-5.9s.9-4,1.12-5.94A.06.06,0,0,0,172,206.25Z" style="fill:#263238"></path><path d="M141.54,196.73c.33,1.48.59,3,.79,4.56a1.1,1.1,0,0,1,0-.18c.08-.85.14-1.72.29-2.56,0,0,.08-.05.08,0a13.21,13.21,0,0,1-.1,2.59c-.05.41-.1.82-.16,1.22.07.69.13,1.38.17,2.06.08,1.3.33,6.85.3,7.8,0,.2-.23.22-.28,0-.19-1-.69-6.69-.83-8a69.87,69.87,0,0,1-.38-7.52C141.44,196.67,141.52,196.68,141.54,196.73Z" style="fill:#263238"></path><path d="M143.13,238.27c-2,1.8-4.44,4.43-18.48,5.41-.88,0-1.78.07-2.68,0-13.52-.38-32.49-11-33.62-11.84,0,0,14.57-39.42,33.84-54.55,2.75-2.17,8.65-1.1,12.34,1.13,1.32.8,5.68,8.09,6.56,14.73S145.12,236.47,143.13,238.27Z" style="fill:#455a64"></path><path d="M132.18,188.3c-3.4.28-8.27-5.6-9.87-10-.11-.3.77-3.17,1.67-6.71.54-2.15,1.09-4.55,1.43-6.78.07-.46,1.5.62,1.5.62l2.78,1.14,9.2,3.78a35.83,35.83,0,0,0-2.67,8.36,5,5,0,0,0,0,.94.86.86,0,0,1,0,.15C136.19,181.57,135.46,188,132.18,188.3Z" style="fill: rgb(235, 148, 129);"></path><path d="M136.18,179.64a.86.86,0,0,1,0,.15,8.73,8.73,0,0,1-1.45-.14C125.33,178,126,165.83,126,165.83l3.7.73,9.2,3.78a35.83,35.83,0,0,0-2.67,8.36A5,5,0,0,0,136.18,179.64Z" style="fill:#263238"></path><path d="M124.46,150.16c-1.79,4.94.12,19.56,3.52,23,4.93,5,13.38,5.83,17.67-.19,4.17-5.82,1.34-24.84-2.49-28C137.51,140.34,127.1,142.87,124.46,150.16Z" style="fill: rgb(235, 148, 129);"></path><path d="M137.78,160.28s-.07.06-.06.1c.15,1,.17,2.13-.69,2.57,0,0,0,.06,0,.05C138.12,162.71,138.09,161.18,137.78,160.28Z" style="fill:#263238"></path><path d="M136.77,159.36c-1.6.08-1.32,3.27.16,3.2S138.11,159.29,136.77,159.36Z" style="fill:#263238"></path><path d="M143.84,159.62s.08,0,.08.08c.06,1,.29,2.12,1.21,2.38a0,0,0,0,1,0,0C144,162.07,143.73,160.57,143.84,159.62Z" style="fill:#263238"></path><path d="M144.64,158.51c1.58-.25,2,2.93.51,3.17S143.31,158.73,144.64,158.51Z" style="fill:#263238"></path><path d="M135.53,157c.42-.15.79-.36,1.2-.55a2.1,2.1,0,0,0,1.11-.78.67.67,0,0,0-.17-.81,1.71,1.71,0,0,0-1.71,0,2.44,2.44,0,0,0-1.32,1.19A.72.72,0,0,0,135.53,157Z" style="fill:#263238"></path><path d="M145.64,157.43a11.38,11.38,0,0,1-1.3-.22,2.13,2.13,0,0,1-1.28-.48.68.68,0,0,1,0-.82,1.65,1.65,0,0,1,1.64-.46,2.48,2.48,0,0,1,1.59.81A.73.73,0,0,1,145.64,157.43Z" style="fill:#263238"></path><path d="M137.71,169.21c.25.21.52.51.88.51a2.66,2.66,0,0,0,1-.34,0,0,0,0,1,.05.05,1.35,1.35,0,0,1-1.21.64,1.06,1.06,0,0,1-.86-.8C137.59,169.21,137.67,169.18,137.71,169.21Z" style="fill:#263238"></path><path d="M142.45,165a21.3,21.3,0,0,1,.19,2.17,15,15,0,0,0-4,.56c-.3.1-.3-.16,0-.36a5.85,5.85,0,0,1,3.38-.81c0-.19-.34-2.26-.23-2.27a6.22,6.22,0,0,1,1.57.37c-.31-3.08-1.11-6.09-1.38-9.16,0-.11.15-.15.18-.05a49.46,49.46,0,0,1,1.91,9.81C144.16,165.65,142.73,165.11,142.45,165Z" style="fill:#263238"></path><path d="M125.52,162.35c2.52-.18,2.2-6.34,2.2-6.34s3.84-.74,5.65-6c0,0,5,3,9.13,2.24,6.48-1.26,6.2-9.71,3.75-11.4-3.48-2.4-9.58,1.23-9.58,1.23s-9.32-2.47-12,3.85a4.77,4.77,0,0,0-4.38,4.81C120.05,155.29,123.65,162.48,125.52,162.35Z" style="fill:#263238"></path><path d="M126.83,156.75a8.52,8.52,0,0,0,4.82-2.72,6.35,6.35,0,0,0,1.41-5.7.09.09,0,0,1,.17,0,7.34,7.34,0,0,1-1,6.18,6,6,0,0,1-5.42,2.46C126.75,156.92,126.72,156.77,126.83,156.75Z" style="fill:#263238"></path><path d="M119.92,148c1.26-1.64,3.21-1.91,5.14-1.87.11,0,.11.18,0,.17a5.38,5.38,0,0,0-4.78,2.67c-1,1.54-.71,3.45-.3,5.13a13.57,13.57,0,0,0,5.49,8,0,0,0,1,1,0,.07,13.48,13.48,0,0,1-6.16-8.73C118.92,151.68,118.76,149.54,119.92,148Z" style="fill:#263238"></path><path d="M136.42,142.36a6.38,6.38,0,0,1,3.54-2.78,7.59,7.59,0,0,1,5.4.48,4.3,4.3,0,0,1,2.3,3.63,7.61,7.61,0,0,1-1.65,4.82s-.09,0-.06,0a7.5,7.5,0,0,0,1.27-4.38,3.93,3.93,0,0,0-2.36-3.46c-2.68-1.15-6.58-.91-8.3,1.82C136.51,142.55,136.36,142.45,136.42,142.36Z" style="fill:#263238"></path><path d="M127,162.12s-3.13-4.79-5.3-3.68.1,8,2.57,9a2.54,2.54,0,0,0,3.44-1.26Z" style="fill: rgb(235, 148, 129);"></path><path d="M122.35,160.39s0,.05,0,.07a6.41,6.41,0,0,1,3.19,4.12,1.4,1.4,0,0,0-2.09-.45s0,.1,0,.09a1.56,1.56,0,0,1,1.7.6,7.53,7.53,0,0,1,.78,1.42c.08.16.36.08.31-.1v0C126.38,163.87,124.74,160.69,122.35,160.39Z" style="fill:#263238"></path><path d="M32.67,470.32H0v-6H32.67c25.88,0,33.26-22.15,34.89-40.73,1.28-14.55,2.06-32.27,2.89-51,3.11-70.18,6.33-142.75,34.57-142.75H130.9v6H105c-22.5,0-26,79.19-28.57,137-.84,18.83-1.63,36.61-2.91,51.3C70.92,453.91,56.41,470.32,32.67,470.32Z" style="fill:#407BFF"></path><polygon points="130.9 229.81 130.9 235.81 110.26 235.81 108.98 229.81 130.9 229.81" style="opacity:0.2"></polygon><rect x="220.68" y="194.58" width="11.02" height="76.98" transform="translate(452.38 466.15) rotate(180)" style="fill:#407BFF"></rect><rect x="178.8" y="198.24" width="41.88" height="68.88" style="fill:#407BFF"></rect><polygon points="220.68 198.24 220.68 267.12 210.28 267.12 205.61 198.24 220.68 198.24" style="opacity:0.2"></polygon><rect x="115.36" y="226.68" width="31.07" height="12.27" transform="translate(261.79 465.62) rotate(180)" style="fill:#407BFF"></rect><rect x="115.36" y="226.68" width="31.07" height="12.27" style="fill:#407BFF"></rect><polygon points="135.52 238.94 136.54 226.68 146.43 226.68 146.43 238.94 135.52 238.94" style="opacity:0.2"></polygon><path d="M146.43,203.11h26.22a6.15,6.15,0,0,1,6.15,6.15v47.64a6.15,6.15,0,0,1-6.15,6.15H146.43a0,0,0,0,1,0,0V203.11A0,0,0,0,1,146.43,203.11Z" transform="translate(325.23 466.15) rotate(180)" style="fill:#407BFF"></path><polygon points="165.02 263.04 169.69 203.11 178.8 203.11 178.8 263.04 165.02 263.04" style="opacity:0.2"></polygon><g style="opacity:0.2"><rect x="167.44" y="215.23" width="2.07" height="35.7" transform="translate(336.94 466.15) rotate(180)"></rect><rect x="161.58" y="215.23" width="2.07" height="35.7" transform="translate(325.23 466.15) rotate(180)"></rect><rect x="155.73" y="215.23" width="2.07" height="35.7" transform="translate(313.52 466.15) rotate(180)"></rect></g><path d="M113.45,191.15c-1,14.44-2.14,43.85,4.24,52.48,8.37,11.32,32,18.19,39,20.25,3,.89,10.19-19,8.41-21.86s-26.17-9-28.09-10.68-8-25.12-10.89-37.06C122.38,179.22,113.86,185.45,113.45,191.15Z" style="fill: rgb(235, 148, 129);"></path><path d="M183.12,249.66c3.85.92,9.69-1.06,9.88,1.89.17,2.62-4,3.59-4,3.59s5.06.43,4.44,3.3-5.42,3-5.42,3,4.64.63,3.81,3.45-5.28,3.21-5.28,3.21,1.17.87-.31,2.6c-2.11,2.48-9.15,2.19-12.78,1.17s-16.2-7.46-18.11-8.49l6.37-23.4s7.31-1.16,11.09-1.3,16.35,2.86,15.82,6-9.38.9-11.67.82-2.69.43-1.69,1.27C175.92,247.36,181.41,249.25,183.12,249.66Z" style="fill: rgb(235, 148, 129);"></path><path d="M188.77,255.09c-5.91,1-8.67.34-14.09-2-.11-.05-.2.1-.09.16,5.1,2.75,8.45,4,14.24,2.11C189.12,255.28,189.06,255.05,188.77,255.09Z" style="fill:#263238"></path><path d="M188.25,261.34c-6.23.45-9.22-.18-15.08-2.2-.08,0-.14.11-.06.15,5.59,2.45,8.95,3.64,15.12,2.37C188.51,261.61,188.54,261.32,188.25,261.34Z" style="fill:#263238"></path><path d="M186.47,268.06c-6.07,0-9.38-.56-14.82-3.24a.11.11,0,0,0-.11.19c5.28,3.28,9.41,4,14.91,3.24C186.82,268.19,186.85,268.06,186.47,268.06Z" style="fill:#263238"></path><path d="M138.24,259.19s-19.07-9.58-22-16.92c-3.6-9.16-5.07-35.87-3.67-49.57s10.94-12,14,.11c3,11.82,9.77,35.43,10.47,36.54.89,1.43,11.77,4.12,11.77,4.12" style="fill:#455a64"></path><path d="M136.33,226.29c-.33-1.13-.91-3.68-1.24-4.78-.67-2.2-1.34-4.41-2-6.61s-1.37-4.41-2.1-6.6c-.13-.37-.25-.75-.37-1.12.06-.24-.21-3.14-.19-3.85,0-.11-.18-.12-.17,0a15.17,15.17,0,0,1-.07,2.13c0,.13,0,.27,0,.4-.46-1.44-.92-2.87-1.39-4.27,0-.1-.2-.06-.17,0,.9,3,1.34,4.89,2,7.32s1.34,4.69,2,7,1.43,4.66,2.16,7a42.83,42.83,0,0,0,1.44,4.09C136.65,227.9,136.67,227.48,136.33,226.29Z" style="fill:#263238"></path><path d="M114.82,234.36c-.39-2.47-.78-5-1.08-7.44-.61-5-1-9.92-1.22-14.92-.13-2.86-.34-5.7-.5-8.55a.11.11,0,0,0-.22,0c0,2.54-.09,5.07,0,7.61,0,.37,0,.74,0,1.11l-.12-.52c-.37-1.45-.89-2.87-1.21-4.34a.08.08,0,0,0-.15.05c.36,1.46.55,3,.89,4.43.18.73.36,1.46.56,2.19l.1.31c.06,1.46.13,2.92.23,4.38a122.91,122.91,0,0,0,1.73,14.94,59,59,0,0,0,2.61,9.49.08.08,0,0,0,.15,0C116,240.63,115.22,236.83,114.82,234.36Z" style="fill:#263238"></path><path d="M145.27,233.46a51.62,51.62,0,0,0-2.8,5.56c-.88,1.88-1.77,3.76-2.6,5.66a110,110,0,0,0-4.41,11.48.1.1,0,0,0,.18.07c1.86-3.7,3.45-7.55,5.07-11.36.8-1.88,1.57-3.78,2.36-5.66s1.69-3.77,2.3-5.71C145.39,233.44,145.3,233.41,145.27,233.46Z" style="fill:#263238"></path></g></svg>