<svg xmlns="http://www.w3.org/2000/svg" viewBox="0 0 500 500"><g id="freepik--background-simple--inject-56"><path d="M436.14,84.79c-34.53-29-92.66-33.47-135.39-18-31.83,11.55-56.48,37.3-87,52-21.52,10.33-45.28,14.84-68.22,21.49-24.87,7.21-48.74,16.52-65.08,37.7-18.09,23.44-22.9,54.39-14.6,82.59,8.69,29.51,30.28,54.2,56.37,70.49s56.46,24.71,87,28.64C250.53,365,293.35,362.27,332.5,348c43-15.71,79.26-45.39,101.2-85.88,19.44-35.89,36.13-86.95,30.28-128.15C461.2,114.39,451.18,97.43,436.14,84.79Z" style="fill:#407BFF"></path><path d="M436.14,84.79c-34.53-29-92.66-33.47-135.39-18-31.83,11.55-56.48,37.3-87,52-21.52,10.33-45.28,14.84-68.22,21.49-24.87,7.21-48.74,16.52-65.08,37.7-18.09,23.44-22.9,54.39-14.6,82.59,8.69,29.51,30.28,54.2,56.37,70.49s56.46,24.71,87,28.64C250.53,365,293.35,362.27,332.5,348c43-15.71,79.26-45.39,101.2-85.88,19.44-35.89,36.13-86.95,30.28-128.15C461.2,114.39,451.18,97.43,436.14,84.79Z" style="fill:#fff;opacity:0.7000000000000001"></path></g><g id="freepik--Shadow--inject-56"><ellipse cx="246.53" cy="407.22" rx="202.37" ry="28.84" style="fill:#407BFF"></ellipse><ellipse cx="246.53" cy="407.22" rx="202.37" ry="28.84" style="fill:#fff;opacity:0.5"></ellipse></g><g id="freepik--Plant--inject-56"><g id="freepik--plant--inject-56"><path d="M455,298a18,18,0,0,0-8.79,5.38,38,38,0,0,0-5.31,7.22c-1,1.65-1.83,3.36-2.63,5.09-.52,1.13-.92,2.54-1.41,3.83-.71,1.15-1.42,2.33-2,3.43,2.12-7.65,9-21.73,9.09-25.73.14-4.36-4,2.12-6.36,11a123.73,123.73,0,0,0-3,15.27c-.24.46-.45.89-.64,1.3-.43.89-1.16,2.4-2.13,4.38,2.13-6.5,2.9-14.21,1.62-15.17-1.86-1.38-2.53,2-2.52,8.26a54.15,54.15,0,0,1-2.19,13.19c-1.17,2.31-2.48,4.86-3.88,7.55,1.47-4.68,2.32-11.42,3.12-16.47,1.17-7.35.67-9.64-1.71-6.11s-2,8.65-1.4,14.91A26,26,0,0,1,422.74,347c-1.79,3.4-3.69,6.92-5.61,10.38a35.36,35.36,0,0,0,3.05-11.22c.83-8.49-.26-16.29-2.23-14.08s-.8,8.12-1.06,15.31a81.89,81.89,0,0,1-1.47,13l-.6,1.06a35.5,35.5,0,0,0,.62-11.12c.39-1.42.25-2.33-.22-2.76-.07-1.6.06-4-.62-5.23-1.72-3.07-3.6,1.06-3.62,2.69a27.4,27.4,0,0,0,.26,3.73,9.75,9.75,0,0,0-1.72,2.12c-.26.44-.53.92-.82,1.45,0-.51.06-1.06.08-1.55a7.61,7.61,0,0,0-.84-4,25.1,25.1,0,0,0,2.21-6.52A3.51,3.51,0,0,0,410,338a1.84,1.84,0,0,0-2.44-.92,3.07,3.07,0,0,0-.31.17c-3.26,1.73-4.13,5.89-4.51,9.23A56,56,0,0,1,401,355c-.67,2.51-1.26,4.78-1.64,6.36a45.31,45.31,0,0,0-1.06-5c-.37-1.37-.72-2.69-1.06-4a26.56,26.56,0,0,1,2.63-13.44c3.86-7.94,6.65-11.68,4-11.81s-6.56,4-7.11,10.54a72,72,0,0,0-.25,11.93c-.85-3-1.69-5.91-2.56-8.83a19.27,19.27,0,0,1,.48-9.71c1.82-5.39,7.26-15,4.4-14.21s-6.3,6.31-6.69,12.19a32.21,32.21,0,0,0,1,9.12q-.93-3.06-2-6.36c-.3-1-.62-2-.93-3a1.25,1.25,0,0,0-.08-.53,14.89,14.89,0,0,1,1.57-8.84c2.74-4.92,7.83-9.15,4.83-10.28S389,316,388.73,320a19.21,19.21,0,0,0,.36,4.54l-.37-.93c-.65-2.3-1.28-4.57-1.83-6.58a18.53,18.53,0,0,1,1.74-8.61c2.68-6.14,6.08-13.15,2.61-11.37-2.8,1.45-5.82,9.72-5.23,16.71-.23-.92-.45-1.7-.62-2.34-.45-4-1.31-13.42,0-19,.86-3.74,2.27-7.29,2.7-11.14A2.4,2.4,0,0,0,388,280c-.94-2.32-4,2.2-4.46,2.94a18,18,0,0,0-2.75,9.95,38.06,38.06,0,0,0,1.06,8.89q.64,2.79,1.55,5.52c.38,1.17,1.06,2.48,1.58,3.75.26,1.33.55,2.68.86,3.89-3.67-7.1-8.32-22.09-10.92-25.14-2.87-3.27-1.48,4.34,2.82,12.39A124.86,124.86,0,0,0,386,315.48c.14.5.28,1,.42,1.39.29.94.79,2.55,1.43,4.66-2.92-6.17-7.58-12.37-9.17-12.2-2.29.26-.47,3.19,3.8,7.76a54.13,54.13,0,0,1,7.35,11.12c.72,2.5,1.51,5.24,2.32,8.16-2.13-4.42-6.11-9.93-9-14.16-4.16-6.17-6.09-7.51-5.42-3.31s4.46,7.67,9.17,11.86a26.23,26.23,0,0,1,6.38,10c1,3.7,2,7.57,3,11.42a35.53,35.53,0,0,0-5.42-10.3c-5.2-6.79-11.32-11.74-11.25-8.79s4.95,6.49,9.69,11.89a78.91,78.91,0,0,1,7.77,10.5c.1.38.19.77.28,1.15-2.12-3.89-5.51-7.06-8.8-10-1.16-1.06-2.91-3.29-4.4-3.77-3.34-1.06-1.9,3.24-.8,4.44,3.57,3.9,8.6,6.31,11.9,10.42a35.7,35.7,0,0,1,3.33,4.92c.23,1.35.4,2.61.54,3.79q-1.9-1.8-4-3.4c-4-2.71-6.37-6.44-9.48-10-.93-1.06-2.51-2.38-4-2.45-2.12-.09-2.75,2.13-2.12,3.88,2.45,7.21,11.67,7.53,17.08,11.28a15.56,15.56,0,0,1,2.72,2.21,44.09,44.09,0,0,1,.18,6.7h-12.4v5.17h3.68l3,18.4h24.79l3-18.4h3.68v-5.17H406.66c.85-1.06,1.76-2.12,2.68-3.33l3.92.12s13.63.59,18.63-2.13.54-5.3-4.25-3.91S413.45,371,411.37,371l-1.76-.05c1-1.27,2-2.58,2.88-3.92a93.33,93.33,0,0,0,11.05-3.52c3.91-1.55,8.49-2.8,11.82-5.43a3.58,3.58,0,0,0,1.4-1.78,1.85,1.85,0,0,0-1.17-2.33,2,2,0,0,0-.33-.08c-3.57-1-7.05,1.48-9.55,3.66a56.4,56.4,0,0,1-7,5.06c-2.21,1.36-4.19,2.64-5.53,3.51,1-1.47,1.9-2.94,2.67-4.37.67-1.26,1.32-2.46,1.93-3.63a26.77,26.77,0,0,1,11.1-8c8.24-3.18,12.81-4,11-5.91s-7.54-1.56-12.4,2.85a71.67,71.67,0,0,0-8.34,8.55c1.45-2.8,2.81-5.48,4.16-8.2a19.38,19.38,0,0,1,7-6.78c5-2.68,15.52-6,12.91-7.37s-8.91.3-13.19,4.34a32.14,32.14,0,0,0-5.5,7.36c.94-1.93,1.9-3.92,2.91-6,.43-.92.9-1.86,1.38-2.84.1-.15.21-.29.3-.45a14.86,14.86,0,0,1,7.19-5.38c5.31-1.73,12-1.35,10.54-4.25s-10.22-.12-13.15,2.63a20.35,20.35,0,0,0-2.84,3.57c.13-.3.26-.62.38-.94,1.06-2.12,2.12-4.24,3.18-6a18.28,18.28,0,0,1,7.14-5.11c6.15-2.65,13.43-5.46,9.67-6.53-3-.86-10.9,3.12-15.22,8.64l1.14-2.12c2.4-3.25,8.2-10.72,13-13.93,3.18-2.13,6.63-3.79,9.55-6.31a2.58,2.58,0,0,0,.76-.91C461.23,296.59,455.94,297.83,455,298Zm-55.48,64.33c.8-1.22,2.21-3.47,3.77-6.36a41.18,41.18,0,0,0,1.64,3.87c-1.44,3-2.76,5.54-3.52,6.2l-1.32,1.16C400,365.62,399.77,364,399.54,362.37Zm9,8.59a41.46,41.46,0,0,1-3.12,3.68H400.6c-.07-2-.21-4.39-.44-7l2.95-2.6s1.29-1.06,3-2.77a24.69,24.69,0,0,1,1.94,5.18A14.6,14.6,0,0,1,408.56,371Zm4-10.21a35.44,35.44,0,0,1-.92,5.88c-.75,1.15-1.49,2.19-2.19,3.18-.06-1.78-.54-5-.59-5.22a21.6,21.6,0,0,1-.54-4.39,58.25,58.25,0,0,0,4-4.57A23.73,23.73,0,0,1,412.57,360.75Z" style="fill:#263238"></path></g></g><g id="freepik--Window--inject-56"><path d="M420,102.76V297c0,5-3.73,9-8.36,9H59.82c-4.62,0-8.37-4-8.37-9V102.76c0-5,3.75-9,8.37-9H411.67C416.3,93.77,420,97.79,420,102.76Z" style="fill:#fff;stroke:#263238;stroke-linecap:round;stroke-linejoin:round;stroke-width:1.0689740180969238px"></path><rect x="64.7" y="127.79" width="94.58" height="150.85" rx="6.29" style="fill:#407BFF"></rect><path d="M100.19,161.29a14.51,14.51,0,1,1-14.51-14.51A14.5,14.5,0,0,1,100.19,161.29Z" style="fill:#fff;stroke:#263238;stroke-linecap:round;stroke-linejoin:round;stroke-width:1.0689740180969238px"></path><rect x="114.8" y="152.95" width="30.29" height="2.87" style="fill:#263238"></rect><rect x="114.8" y="159.85" width="33.99" height="2.87" style="fill:#263238"></rect><rect x="114.8" y="166.75" width="30.29" height="2.87" style="fill:#263238"></rect><rect x="114.8" y="173.64" width="35.94" height="2.87" style="fill:#263238"></rect><rect x="75.07" y="192.77" width="73.71" height="23.66" rx="5.35" style="fill:#fff;stroke:#263238;stroke-linecap:round;stroke-linejoin:round;stroke-width:1.0689740180969238px"></rect><rect x="75.07" y="224.3" width="73.71" height="23.66" rx="5.35" style="fill:#fff;stroke:#263238;stroke-linecap:round;stroke-linejoin:round;stroke-width:1.0689740180969238px"></rect><line x1="307.83" y1="127.36" x2="307.83" y2="287.81" style="fill:none;stroke:#263238;stroke-linecap:round;stroke-linejoin:round;stroke-width:1.0689740180969238px"></line><path d="M420,102.15v13H51.45v-13a8.38,8.38,0,0,1,8.37-8.38H411.67A8.36,8.36,0,0,1,420,102.15Z" style="fill:#263238"></path><circle cx="76.65" cy="104.44" r="3.35" style="fill:#fff"></circle><path d="M95.47,104.44a3.35,3.35,0,1,1-3.35-3.35A3.35,3.35,0,0,1,95.47,104.44Z" style="fill:#fff"></path><path d="M110.75,104.44a3.35,3.35,0,1,1-3.35-3.35A3.35,3.35,0,0,1,110.75,104.44Z" style="fill:#fff"></path><rect x="322.09" y="142.26" width="80.46" height="2.67" style="fill:#407BFF"></rect><rect x="322.09" y="150.59" width="38.86" height="2.67" style="fill:#407BFF"></rect><rect x="322.09" y="158.92" width="62.2" height="2.67" style="fill:#407BFF"></rect><rect x="322.09" y="167.01" width="55.56" height="2.9" style="fill:#407BFF"></rect><rect x="322.09" y="175.58" width="53.82" height="2.67" style="fill:#407BFF"></rect><rect x="322.09" y="183.91" width="34.97" height="2.67" style="fill:#407BFF"></rect><rect x="322.09" y="142.26" width="80.46" height="2.67" style="opacity:0.2"></rect><rect x="322.09" y="150.59" width="38.86" height="2.67" style="opacity:0.2"></rect><rect x="322.09" y="158.92" width="62.2" height="2.67" style="opacity:0.2"></rect><rect x="322.09" y="167.01" width="55.56" height="2.9" style="opacity:0.2"></rect><rect x="322.09" y="175.58" width="53.82" height="2.67" style="opacity:0.2"></rect><rect x="322.09" y="183.91" width="34.97" height="2.67" style="opacity:0.2"></rect><circle cx="85.68" cy="160.67" r="8.33" style="fill:#263238"></circle><path d="M94,173.2a14.52,14.52,0,0,1-17-.35c1.37-2.75,4-7,7.34-7C88.52,165.79,91.37,167.63,94,173.2Z" style="fill:#263238"></path><rect x="312.47" y="99.81" width="88.56" height="9.26" rx="4.15" style="fill:#fff"></rect><line x1="317.72" y1="101.39" x2="317.72" y2="107.27" style="fill:none;stroke:#263238;stroke-linecap:round;stroke-linejoin:round;stroke-width:1.0689740180969238px"></line><rect x="119.44" y="256.8" width="27.98" height="12.97" rx="3.95" style="fill:#407BFF"></rect><polyline points="403.53 256.99 328.84 256.99 328.84 217.85" style="fill:none;stroke:#263238;stroke-linecap:round;stroke-linejoin:round;stroke-width:1.0689740180969238px"></polyline><polyline points="331.86 240.85 335.07 248.02 351.92 225.72 355.44 236.48 362.1 232.74 377.49 248.02 388.98 237.42 393.42 242.09 401.08 227.03" style="fill:none;stroke:#263238;stroke-linecap:round;stroke-linejoin:round;stroke-width:1.0689740180969238px"></polyline><rect x="321.68" y="254.53" width="5.41" height="2.45" style="fill:#407BFF"></rect><rect x="321.68" y="245.57" width="5.41" height="2.45" style="fill:#407BFF"></rect><rect x="321.68" y="236.6" width="5.41" height="2.45" style="fill:#407BFF"></rect><rect x="321.68" y="227.63" width="5.41" height="2.45" style="fill:#407BFF"></rect><rect x="321.68" y="218.67" width="5.41" height="2.45" style="fill:#407BFF"></rect><rect x="358.8" y="265.49" width="15.45" height="2.41" transform="translate(99.82 633.21) rotate(-90)" style="fill:#407BFF"></rect><rect x="367.38" y="265.49" width="15.45" height="2.41" transform="translate(108.4 641.79) rotate(-90)" style="fill:#407BFF"></rect><rect x="375.95" y="265.49" width="15.45" height="2.41" transform="translate(116.98 650.37) rotate(-90)" style="fill:#407BFF"></rect><rect x="384.53" y="265.49" width="15.45" height="2.41" transform="translate(125.56 658.95) rotate(-90)" style="fill:#407BFF"></rect><rect x="393.11" y="265.49" width="15.45" height="2.41" transform="translate(134.14 667.53) rotate(-90)" style="fill:#407BFF"></rect><rect x="349.99" y="265.49" width="15.45" height="2.41" transform="translate(91.02 624.41) rotate(-90)" style="fill:#407BFF"></rect><rect x="341.19" y="265.49" width="15.45" height="2.41" transform="translate(82.22 615.61) rotate(-90)" style="fill:#407BFF"></rect><rect x="332.39" y="265.49" width="15.45" height="2.41" transform="translate(73.41 606.8) rotate(-90)" style="fill:#407BFF"></rect><rect x="323.58" y="265.49" width="15.45" height="2.41" transform="translate(64.61 598) rotate(-90)" style="fill:#407BFF"></rect><path d="M261.65,134.39a15.06,15.06,0,0,0,0,30.12h0a15.06,15.06,0,0,0,.61-30.12Z" style="fill:#263238"></path><path d="M271.2,144.62a2.48,2.48,0,0,0-1.76-1.77c-1.56-.42-7.8-.42-7.8-.42s-6.24,0-7.79.42a2.49,2.49,0,0,0-1.77,1.77,28.54,28.54,0,0,0,0,9.67,2.49,2.49,0,0,0,1.77,1.77c1.55.42,7.79.42,7.79.42s6.24,0,7.8-.42a2.5,2.5,0,0,0,1.76-1.77A28,28,0,0,0,271.2,144.62Z" style="fill:#fff"></path><polygon points="259.6 152.42 259.6 146.49 264.82 149.45 259.6 152.42" style="fill:#263238"></polygon><path d="M202.32,134.43a15,15,0,1,0,15,15A15,15,0,0,0,202.32,134.43Z" style="fill:#263238"></path><path d="M199.79,159.09h3.89v-9.74h2.71l.29-3.26h-3v-1.87c0-.77.15-1.07.9-1.07h2.1v-3.39H204c-2.89,0-4.2,1.28-4.2,3.71v2.6h-2v3.29h2Z" style="fill:#fff"></path><path d="M202.23,195.48a15.06,15.06,0,1,0,15.06,15.07v0A15.07,15.07,0,0,0,202.23,195.48Z" style="fill:#263238"></path><path d="M202.23,203.35c2.34,0,2.62,0,3.55,0a4.86,4.86,0,0,1,1.63.31,2.66,2.66,0,0,1,1,.65,2.73,2.73,0,0,1,.66,1,4.8,4.8,0,0,1,.3,1.63c0,.93,0,1.24,0,3.54s0,2.63,0,3.55a4.75,4.75,0,0,1-.3,1.63,2.61,2.61,0,0,1-.66,1,2.69,2.69,0,0,1-1,.66,5.1,5.1,0,0,1-1.63.3c-.93,0-1.21,0-3.55,0s-2.62,0-3.55,0a5,5,0,0,1-1.63-.3,2.69,2.69,0,0,1-1-.66,2.61,2.61,0,0,1-.66-1,4.75,4.75,0,0,1-.3-1.63c0-.92-.06-1.2-.06-3.55s0-2.61.06-3.54a4.8,4.8,0,0,1,.3-1.63,2.61,2.61,0,0,1,.66-1,2.66,2.66,0,0,1,1-.65,5,5,0,0,1,1.63-.31c.93,0,1.2,0,3.55,0m0-1.58c-2.38,0-2.69,0-3.62,0a6.33,6.33,0,0,0-2.1.38,4.48,4.48,0,0,0-2.56,2.56,6.54,6.54,0,0,0-.41,2.13c0,.94-.06,1.24-.06,3.62s0,2.68.06,3.62a6.44,6.44,0,0,0,.41,2.13,4.49,4.49,0,0,0,2.56,2.6,6.82,6.82,0,0,0,2.13.41c.94,0,1.24,0,3.62,0s2.68,0,3.62,0a6.82,6.82,0,0,0,2.13-.41,4.5,4.5,0,0,0,2.56-2.57,6.44,6.44,0,0,0,.41-2.13c0-.93.06-1.23.06-3.62s0-2.68-.06-3.62a6.44,6.44,0,0,0-.41-2.12,4.47,4.47,0,0,0-2.56-2.57,6.54,6.54,0,0,0-2.13-.41c-.94,0-1.24,0-3.62,0" style="fill:#fff"></path><path d="M202.23,206a4.51,4.51,0,1,0,4.5,4.52v0a4.5,4.5,0,0,0-4.5-4.5m0,7.41a2.93,2.93,0,1,1,2.92-2.93h0a2.93,2.93,0,0,1-2.92,2.93" style="fill:#fff"></path><path d="M262.21,224.49h0a14.34,14.34,0,0,1-14.35-14.35h0a14.35,14.35,0,0,1,14.35-14.35h0a14.35,14.35,0,0,1,14.35,14.35h0A14.34,14.34,0,0,1,262.21,224.49Z" style="fill:#263238;stroke:#263238;stroke-linecap:round;stroke-linejoin:round;stroke-width:1.0689740180969238px"></path><path d="M254.57,215a8.79,8.79,0,0,0,4.8,1.4A8.88,8.88,0,0,0,268.3,207a6.67,6.67,0,0,0,1.55-1.63,6.26,6.26,0,0,1-1.8.5,3.16,3.16,0,0,0,1.37-1.74,6.36,6.36,0,0,1-2,.78,3.14,3.14,0,0,0-5.34,2.86,8.91,8.91,0,0,1-6.46-3.28,3.14,3.14,0,0,0,1,4.19,3.18,3.18,0,0,1-1.42-.39,3.14,3.14,0,0,0,2.51,3.1,2.93,2.93,0,0,1-1.41,0,3.13,3.13,0,0,0,2.93,2.18A6.36,6.36,0,0,1,254.57,215Z" style="fill:#fff"></path><path d="M261.73,259.67a15.07,15.07,0,1,0,15.06,15.07A15.07,15.07,0,0,0,261.73,259.67Z" style="fill:#263238"></path><rect x="254.02" y="270.79" width="3.31" height="10.7" style="fill:#fff"></rect><path d="M255.66,269.39a2,2,0,1,0-2-2h0a2,2,0,0,0,2,2Z" style="fill:#fff"></path><path d="M262.63,275.88c0-1.51.69-2.4,2-2.4s1.8.86,1.8,2.4v5.61h3.3v-6.75c0-2.86-1.63-4.26-3.91-4.26a3.73,3.73,0,0,0-3.22,1.78v-1.43h-3.19v10.7h3.19Z" style="fill:#fff"></path><path d="M202.22,289.74h0a15.06,15.06,0,0,1-15.06-15.06h0a15.07,15.07,0,0,1,15.06-15.07h0a15.07,15.07,0,0,1,15.07,15.07h0A15.07,15.07,0,0,1,202.22,289.74Z" style="fill:#263238"></path><path d="M200,280.39a3.16,3.16,0,0,0,1.2-.53,3.18,3.18,0,0,0,1.22-2.52,2.84,2.84,0,0,0-.41-1.55,2.31,2.31,0,0,0-1.22-.93,2.67,2.67,0,0,0,.81-.6,2.36,2.36,0,0,0,.48-1.56,2.65,2.65,0,0,0-.48-1.61,3.25,3.25,0,0,0-2.74-1.12h-5.11v10.54h4.74A7.63,7.63,0,0,0,200,280.39Zm-4.14-8.59h2.29a3.74,3.74,0,0,1,1.25.17.92.92,0,0,1,.57,1,1,1,0,0,1-.43.93,2.18,2.18,0,0,1-1.12.26h-2.56Zm0,6.9v-2.82h2.59a3,3,0,0,1,1.06.17,1.16,1.16,0,0,1,.68,1.14,1.35,1.35,0,0,1-.7,1.32,2.63,2.63,0,0,1-1.07.19Z" style="fill:#fff"></path><path d="M204.17,279.84a4.24,4.24,0,0,0,2.75,1,3.76,3.76,0,0,0,3-1.14,2.44,2.44,0,0,0,.75-1.4h-2.09a1.76,1.76,0,0,1-.41.53,1.73,1.73,0,0,1-1.14.36,2.14,2.14,0,0,1-1.13-.29,1.87,1.87,0,0,1-.81-1.65h5.69a10,10,0,0,0-.06-1.55A4,4,0,0,0,210,274a3.21,3.21,0,0,0-1.35-1.15,4.45,4.45,0,0,0-1.84-.37,3.77,3.77,0,0,0-2.79,1.08,4.25,4.25,0,0,0-1,3.09A3.82,3.82,0,0,0,204.17,279.84Zm1.46-5.2a1.67,1.67,0,0,1,1.22-.45,1.81,1.81,0,0,1,1.22.43,1.69,1.69,0,0,1,.54,1.23h-3.52A2.16,2.16,0,0,1,205.63,274.64Z" style="fill:#fff"></path><rect x="204.42" y="270.57" width="4.59" height="1.07" style="fill:#fff"></rect><rect x="181.63" y="128.76" width="41.38" height="41.38" rx="4.51" style="fill:none;stroke:#407BFF;stroke-miterlimit:10;stroke-width:1.0689740180969238px"></rect><rect x="241.26" y="128.76" width="41.38" height="41.38" rx="4.51" style="fill:none;stroke:#407BFF;stroke-miterlimit:10;stroke-width:1.0689740180969238px"></rect><rect x="181.63" y="189.37" width="41.38" height="41.38" rx="4.51" style="fill:none;stroke:#407BFF;stroke-miterlimit:10;stroke-width:1.0689740180969238px"></rect><rect x="241.26" y="189.37" width="41.38" height="41.38" rx="4.51" style="fill:none;stroke:#407BFF;stroke-miterlimit:10;stroke-width:1.0689740180969238px"></rect><rect x="181.63" y="252.98" width="41.38" height="41.38" rx="4.51" style="fill:none;stroke:#407BFF;stroke-miterlimit:10;stroke-width:1.0689740180969238px"></rect><rect x="241.26" y="252.98" width="41.38" height="41.38" rx="4.51" style="fill:none;stroke:#407BFF;stroke-miterlimit:10;stroke-width:1.0689740180969238px"></rect><rect x="247.86" y="236.49" width="29.16" height="8.85" style="fill:#407BFF"></rect><rect x="247.86" y="175.78" width="29.16" height="8.85" style="fill:#407BFF"></rect><rect x="187.65" y="175.78" width="29.16" height="8.85" style="fill:#407BFF"></rect><rect x="187.65" y="236.49" width="29.16" height="8.85" style="fill:#407BFF"></rect><rect x="247.86" y="236.49" width="29.16" height="8.85" style="fill:#263238"></rect><rect x="247.86" y="175.78" width="29.16" height="8.85" style="fill:#263238"></rect><rect x="187.65" y="175.78" width="29.16" height="8.85" style="fill:#263238"></rect><rect x="187.65" y="236.49" width="29.16" height="8.85" style="fill:#263238"></rect><line x1="80" y1="132.22" x2="145.08" y2="132.22" style="fill:none;stroke:#263238;stroke-linecap:round;stroke-linejoin:round;stroke-width:1.0689740180969238px"></line></g><g id="freepik--Character--inject-56"><path d="M165.21,389.24s2.33,8,1.55,12.89c0,0-.93,8.14-2,12.48s-2.16,7.35,3.95,9.07,21.12-1.93,24.64-.7,23.56-1.52,26.55-2.84,3.46-10.47-3-13.65S165.21,389.24,165.21,389.24Z" style="fill:#fff"></path><path d="M166.1,406s-1.74,9.78-1.69,11.56a38.91,38.91,0,0,1,9.11-1.46c4.12,0,16.47.16,21.37-.58s14.32-4.19,18.68-4.21a46.78,46.78,0,0,1,8.25.73s.51-3.49-6.37-5.31-31.95-7.09-31.95-7.09S177.9,405.66,166.1,406Z" style="fill:#407BFF"></path><path d="M253.44,401.34s4.39-2.78,8.52-1.08S280.8,402,280.8,402s11.64-1.46,16.6,1,5.51,6.17,5.12,9.06-7.71,10.6-17.32,11-10.4-1.76-18.3-2.18c0,0-10.6-.67-13.66-2s-7.06-2.43-6.94-8.15S253.44,401.34,253.44,401.34Z" style="fill:#fff"></path><path d="M253.44,401.34s4.45-2.52,12.31-.16,21.71-1.13,27.71.95,6.83,6,6.06,7.51-5.88,7.62-11.56,8.59-18.49.38-24.36,1.45c0,0-12.13.7-16-5.36S253.44,401.34,253.44,401.34Z" style="fill:#407BFF"></path><polygon points="88.42 396.96 81.02 383.17 101.2 362.35 119.41 364.52 129.72 380.23 127.15 389.24 88.42 396.96" style="fill:#263238"></polygon><path d="M73.15,393.19s.56,25.79,17.28,28.58,76.39-26.24,76.39-26.24,22.22,11.54,38.94,13,41,4.57,43.48,7.35S261,407,255.65,400c0,0-18.11-1.15-29.53-6.84s-48.76-27.29-56.28-28.61-51,19.29-51,19.29l-13.1,2.79Z" style="fill:#263238"></path><path d="M122.62,374.77l-3.21-10.25s32.13-35.71,45.8-35.23,16.08,12.57,17,22,0,23.44,0,23.44l-31.42,3.93-23.69,10.58-4.53-14.47" style="fill:#263238"></path><path d="M157.48,368.78c0,.56,1.1-16.28,5.93-23.81" style="fill:none;stroke:#fff;stroke-linecap:round;stroke-linejoin:round;stroke-width:1.0689740180969238px"></path><path d="M168.54,344.69a46.24,46.24,0,0,0,.06,10" style="fill:none;stroke:#fff;stroke-linecap:round;stroke-linejoin:round;stroke-width:1.0689740180969238px"></path><path d="M166.24,405.66s-2.37,12.39-1.72,15c.83,3.31,9.49,3.38,11.95,3.49,5.44.23,10.87-.31,16.31-.22,4.14.07,8.27.51,12.42.45a27.64,27.64,0,0,0,12.06-2.49c3.18-1.59,5.26-3.85,4.86-7.55-.53-4.88-2.16-6.11-8.9-6.88s-30.53-7.88-30.53-7.88S179,406.06,166.24,405.66Z" style="fill:none;stroke:#263238;stroke-linecap:round;stroke-linejoin:round;stroke-width:1.0689740180969238px"></path><path d="M166.24,405.66a35.55,35.55,0,0,0,0-14c-1.58-7.12,10.67-.92,10.67-.92l6.59,7.11-.81,1.72" style="fill:none;stroke:#263238;stroke-linecap:round;stroke-linejoin:round;stroke-width:1.0689740180969238px"></path><path d="M165.21,421.94a3.06,3.06,0,0,1,2.35-3.1c1.78-.47,3.94-.15,5.75-.1,3.13.1,6.26.23,9.39.26,10.54.09,20.77-3.25,31.3-3.65,1.85-.07,5.16-.56,6.8.59,2.64,1.85-2.23,5.48-4.06,6.22a37.89,37.89,0,0,1-14,2.22c-6.18-.29-15.86-.25-20.05-.2S170.64,425.83,165.21,421.94Z" style="fill:#263238"></path><path d="M164.82,417.52a22.29,22.29,0,0,1,8.7-1.46c10.94-.05,23,.6,33.44-3.28,4.62-1.72,12.17-2.64,14.92,0" style="fill:none;stroke:#263238;stroke-linecap:round;stroke-linejoin:round;stroke-width:1.0689740180969238px"></path><path d="M247.43,413.7s.39,4.48,7.9,5.54,22.67,3,27.68,3.69,19.38-4.75,19.51-11.8-6.06-9.16-9.89-9.29-22,.66-26.88-.66-7.65-1.85-10.55-.13" style="fill:none;stroke:#263238;stroke-linecap:round;stroke-linejoin:round;stroke-width:1.0689740180969238px"></path><path d="M295,402.13s4.27,3.27,4.67,6.56-8.17,9.75-15.82,10.41-17.45-.69-21.84,1" style="fill:none;stroke:#263238;stroke-linecap:round;stroke-linejoin:round;stroke-width:1.0689740180969238px"></path><path d="M74.34,296.35s5.84,4.33,8.66,2.47,9-8.9,9-8.9l8.92,4.86,9.36,30.05,6.26,26.56,10,4.89v4.25s-5.88,6.09-12,7.9S101.74,372,96.7,370.82,82,336.26,82,336.26l-24.3-35.51Z" style="fill:#263238"></path><polygon points="153.57 366.19 110.27 355.19 153.57 335.13 194.89 345.67 153.57 366.19" style="fill:#fff;stroke:#263238;stroke-linecap:round;stroke-linejoin:round;stroke-width:1.0689740180969238px"></polygon><polygon points="153.57 366.19 163.25 321.75 203.69 306.32 195.38 345.96 153.57 366.19" style="fill:#fff"></polygon><polygon points="110.27 354.68 110.27 357.11 153.83 368.78 195.82 347.74 196.05 345.32 153.83 365.74 110.27 354.68" style="fill:#263238"></polygon><path d="M89.25,293.08a68.48,68.48,0,0,1,11.55,20c3.88,11.19,11.17,34.87,10.54,44l15.43-12a94.07,94.07,0,0,1-1.67-23.24c.85-11.4,1.71-29.56-8.26-31.05-10.42-2.23-24.32-5.63-24.32-5.63Z" style="fill:#407BFF"></path><path d="M63.16,288.62S47.51,297,45.57,300.38s-3.07,2.38-2.34,7.72,4.61,22.75,5.55,28.63S52.91,368,52.91,368a55.66,55.66,0,0,0,8.89,3L41.35,397.73S49.06,414.48,63.79,415s21.56-13.81,27.93-23.9,10.64-23.73,10.64-23.73l3.09-.57L104.3,352.3l-1.94.3s-.41-20.22-9-35.46S63.16,288.62,63.16,288.62Z" style="fill:#407BFF"></path><path d="M96.35,287.71s6.81,3.48,7.51,7.86-1.54,9.81,1.73,11.95,7.11,2.59,9,8.29,1.32,32.06,0,36.58-3.2,0-3.2,0l-2.17-11.52-4.46-16.49L100.35,312l-4-8.58-4.8-9.77Z" style="opacity:0.2"></path><path d="M105.18,363.45s6.37.84,8.5-.08,4-1.38,5.5-5.58,4.3-5.49,7.31-5.69,9.82-1.53,11-4.81l-2.95-.21a7,7,0,0,0,2.74-1.5h-1.24s-5.92-3.11-8.94-3.86-6.25-1.53-9.1.93-4.38,7.76-5.54,9.14-4.23,3.09-8.26,3.08Z" style="fill:#fff"></path><path d="M105.59,363.48s8.64,1.51,11.52-1.88,1.88-8.19,8.28-9.3,11.82-2.5,12.12-5c0,0-13.16-1.25-16,1" style="fill:none;stroke:#263238;stroke-linecap:round;stroke-linejoin:round;stroke-width:1.0689740180969238px"></path><path d="M135,347a4.37,4.37,0,0,0,2.34-1.37l-5.91-1.13c-2.07-.4-4.14-1.09-6.28-1a7.38,7.38,0,0,0-4.9,2.71" style="fill:none;stroke:#263238;stroke-linecap:round;stroke-linejoin:round;stroke-width:1.0689740180969238px"></path><path d="M135.72,345l-6.85-2.61c-3.15-1.2-6.86-2.36-9.73-.59a9.68,9.68,0,0,0-2.83,3.07,33.85,33.85,0,0,0-2.21,4,14.91,14.91,0,0,1-1.62,3c-1.87,2.36-4.76,2.95-7.77,3.08" style="fill:none;stroke:#263238;stroke-linecap:round;stroke-linejoin:round;stroke-width:1.0689740180969238px"></path><path d="M62,288.62s8.69,3.4,12.3,7.73c0,0,8.71,5.92,12.33-.59s4-19.62,4-19.62L94,268.65,92.7,248.56l-9.42-14.15-8.94-6.57-9.71,18.74-11.28,7.68,1.29,21Z" style="fill:#fff"></path><path d="M80.22,236s.42,16.12-12.7,22.06c0,0-3.82,19.57,8.83,23.71,0,0,2.14,9.15-6.95,10.61-11.73-5.75-9.66-11.9-9.66-11.9l-4.05-17.33L54.4,251.5l15-11.77Z" style="fill:#407BFF"></path><path d="M80.22,236s.42,16.12-12.7,22.06c0,0-3.82,19.57,8.83,23.71,0,0,2.14,9.15-6.95,10.61-11.73-5.75-9.66-11.9-9.66-11.9l-4.05-17.33L54.4,251.5l15-11.77Z" style="fill:#fff;opacity:0.5"></path><path d="M90.45,244.49s.56,1.82,0,7.26.78,12.39-1,17.27-4.8,12.32-13.09,12.71c-6.36,0-13-9-13.82-14.91,0,0-7.67-3.6-6.76-8.7s5.83-3.73,7.12,0" style="fill:none;stroke:#263238;stroke-linecap:round;stroke-linejoin:round;stroke-width:1.0689740180969238px"></path><path d="M83.55,254.61a18.94,18.94,0,0,0,.29,9.07,3.14,3.14,0,0,1,.15,2.06,1.92,1.92,0,0,1-1.49,1.05,5,5,0,0,1-1.88-.16" style="fill:none;stroke:#263238;stroke-linecap:round;stroke-linejoin:round;stroke-width:1.0689740180969238px"></path><path d="M80.22,270.12s-3.58,1.11-5.82-1.47" style="fill:none;stroke:#263238;stroke-linecap:round;stroke-linejoin:round;stroke-width:1.0689740180969238px"></path><path d="M63.16,288.62c2.22-5.64-1.92-22.55-1.92-22.55" style="fill:none;stroke:#263238;stroke-linecap:round;stroke-linejoin:round;stroke-width:1.0689740180969238px"></path><path d="M77,251.79s-5.17-4.5-7.59,2.16" style="fill:none;stroke:#263238;stroke-linecap:round;stroke-linejoin:round;stroke-width:1.0689740180969238px"></path><path d="M84.48,251.5a4.85,4.85,0,0,1,1.79-2.06,2.34,2.34,0,0,1,2.6.12" style="fill:none;stroke:#263238;stroke-linecap:round;stroke-linejoin:round;stroke-width:1.0689740180969238px"></path><ellipse cx="75.44" cy="258.02" rx="0.86" ry="1.94" style="fill:#263238"></ellipse><path d="M86.2,257.16c0,1.07-.38,1.94-.86,1.94s-.86-.87-.86-1.94.38-1.94.86-1.94S86.2,256.09,86.2,257.16Z" style="fill:#263238"></path><path d="M81.31,280.44s-1.78,3.56,1.06,11.35" style="fill:none;stroke:#263238;stroke-linecap:round;stroke-linejoin:round;stroke-width:1.0689740180969238px"></path><path d="M61.24,255.22s19.32-7.16,19-19.26c0,0,3.22,7.81,10.48,11.84,0,0-2.08-11.06-4.5-15.87s-16.86-8.59-22.39-7.42-16.19,3.39-18.4,21.21,0,31.22-5.2,38.37-4.42,19.51,3.13,21.2a15.88,15.88,0,0,1,3.8-6.27c2.73-2.6,16.27-10.14,16.27-10.14s.59-13.54-2.17-22.81c0,0-5.78-1.78-5.47-7.95C56.35,253.32,61.24,255.22,61.24,255.22Z" style="fill:#263238"></path><path d="M85.56,231a43.35,43.35,0,0,1,7.14,9.73c4.19,7.33,8.82,15.6,10.92,23.78a25.1,25.1,0,0,1-2.93,19.23,17.68,17.68,0,0,0-1.46,2.57,13.47,13.47,0,0,0-.76,3.45c-.35,2.67-.76,5.44-2.22,7.71s-4.28,3.88-6.87,3.1a10.64,10.64,0,0,1-5.69-5.45c-2-5.45-3.26-8.92-2.38-14.66,0,0,9.15-8.06,9.08-17.33s1.58-15.66-2.18-20.26S85.56,231,85.56,231Z" style="fill:#263238"></path><path d="M63.41,288.88s-12.68,6.62-17.84,11.5-.49,16.16,1.65,27.6,3.8,22.34,5.69,40c18.54,8.62,36,1.62,52.54-1.22L104.3,352.3c-2.41.13-15,3.85-26,.6-5.68-1.69-10.31.77-14.22,5.22" style="fill:none;stroke:#263238;stroke-linecap:round;stroke-linejoin:round;stroke-width:1.0689740180969238px"></path><path d="M61.09,354.28c5.65-2.78,10.76-4,16-1.68" style="fill:none;stroke:#263238;stroke-linecap:round;stroke-linejoin:round;stroke-width:1.0689740180969238px"></path><path d="M76,352.17c-3.27-8.83-4.07-19.06-5.59-28.79" style="fill:none;stroke:#263238;stroke-linecap:round;stroke-linejoin:round;stroke-width:1.0689740180969238px"></path><path d="M52.91,308.1A36.16,36.16,0,0,1,68.3,325.86" style="fill:none;stroke:#263238;stroke-linecap:round;stroke-linejoin:round;stroke-width:1.0689740180969238px"></path><path d="M65.52,314.69l2.55,4.9" style="fill:none;stroke:#263238;stroke-linecap:round;stroke-linejoin:round;stroke-width:1.0689740180969238px"></path><path d="M63.16,288.62S88.35,303.1,95.77,322.1s6.41,30.27,6.41,30.27" style="fill:none;stroke:#263238;stroke-linecap:round;stroke-linejoin:round;stroke-width:1.0689740180969238px"></path><path d="M63.16,288.62c-2.69,5.78-.19,12.53,3.66,17.13,4,4.8,10.55,7.4,16.62,8.35.66.1,1.45.26,1.67.89a1.6,1.6,0,0,1,0,1c-.91,3-3.71,5.38-3.65,8.5a9.63,9.63,0,0,0,1.07,3.67A219.06,219.06,0,0,0,94,350.31" style="fill:none;stroke:#263238;stroke-linecap:round;stroke-linejoin:round;stroke-width:1.0689740180969238px"></path><path d="M64.63,231.44a53,53,0,0,1-7,18.54" style="fill:none;stroke:#fff;stroke-linecap:round;stroke-linejoin:round;stroke-width:1.0689740180969238px;opacity:0.5"></path><path d="M53.35,234.41c-3.62,8.45-1.9,18.1-2.28,27.29a58.27,58.27,0,0,1-6.22,23.78" style="fill:none;stroke:#fff;stroke-linecap:round;stroke-linejoin:round;stroke-width:1.0689740180969238px;opacity:0.5"></path><path d="M102.36,367.36s-12.74,34.47-25,43.3-25.87,4.1-36-12.93L61.8,371.05" style="fill:none;stroke:#263238;stroke-linecap:round;stroke-linejoin:round;stroke-width:1.0689740180969238px"></path><path d="M65.47,372.09a34.5,34.5,0,0,0,12.81,19.1" style="fill:none;stroke:#263238;stroke-linecap:round;stroke-linejoin:round;stroke-width:1.0689740180969238px"></path><path d="M63,371.82a39.85,39.85,0,0,0,.83,16.83" style="fill:none;stroke:#263238;stroke-linecap:round;stroke-linejoin:round;stroke-width:1.0689740180969238px"></path><path d="M84.48,285.69s11.62,12.4,18.7,33.9,8.16,33.31,8.16,33.31" style="fill:none;stroke:#263238;stroke-linecap:round;stroke-linejoin:round;stroke-width:1.0689740180969238px"></path><path d="M75.44,297.22s7.52,5,11.23-1.46,1-8.65,1-8.65" style="fill:none;stroke:#263238;stroke-linecap:round;stroke-linejoin:round;stroke-width:1.0689740180969238px"></path><path d="M86,284.77c2.35-.38,4.71.44,6.91,1.34a26.32,26.32,0,0,1,7.32,4.14,11.22,11.22,0,0,1,4.07,7.16c.31,3.09-1,6.51.61,9.18,1.8,3,6.27,3.27,8.38,6.05a10.12,10.12,0,0,1,1.58,4.74A112.59,112.59,0,0,1,115,347" style="fill:none;stroke:#263238;stroke-linecap:round;stroke-linejoin:round;stroke-width:1.0689740180969238px"></path><path d="M113.16,303.5a29.58,29.58,0,0,1,6.54,8.19,14.18,14.18,0,0,1,1.23,10.22c-.38,1.24-1,2.41-1.3,3.66a19.55,19.55,0,0,0-.51,3.66l-1,13" style="fill:none;stroke:#263238;stroke-linecap:round;stroke-linejoin:round;stroke-width:1.0689740180969238px"></path><path d="M89.25,283.64C94.16,285.11,99,287,104,288.07s9.73,1.34,14.49,3.21a9.5,9.5,0,0,1,2,1c4.09,2.86,4.06,8.62,4.52,13,1.4,13.35-2.27,23.33,1.48,36.22" style="fill:none;stroke:#263238;stroke-linecap:round;stroke-linejoin:round;stroke-width:1.0689740180969238px"></path><path d="M101.2,370.76s12.53,1.33,24.07-9.12" style="fill:none;stroke:#263238;stroke-linecap:round;stroke-linejoin:round;stroke-width:1.0689740180969238px"></path><path d="M93,299.1c-2.3-3.36-3.87-7.43-3.27-11.45.39-2.61,1.66-5,2.8-7.36A38.18,38.18,0,0,0,96,270.61a17.93,17.93,0,0,0-.84-10.13,28.17,28.17,0,0,0-4.05-6.22" style="fill:none;stroke:#fff;stroke-linecap:round;stroke-linejoin:round;stroke-width:1.0689740180969238px;opacity:0.5"></path><polygon points="153.57 366.19 203.69 306.32 195.38 345.96 153.57 366.19" style="fill:#263238"></polygon><polygon points="153.57 366.19 203.69 306.32 195.38 345.96 153.57 366.19" style="fill:#fff;opacity:0.8"></polygon><path d="M186.39,334.55c-.69,2.7-2.7,4.51-4.49,4.05s-2.66-3-2-5.72,2.71-4.51,4.49-4.05S187.09,331.85,186.39,334.55Z" style="fill:#263238"></path><polygon points="153.57 366.19 163.25 321.75 203.69 306.32 195.38 345.96 153.57 366.19" style="fill:none;stroke:#263238;stroke-linecap:round;stroke-linejoin:round;stroke-width:1.0689740180969238px"></polygon><polygon points="151.93 365.23 161.41 321.08 202.37 305.68 203.88 306.06 163.25 321.75 153.57 366.19 151.93 365.23" style="fill:#263238"></polygon><path d="M63.16,288.62s-3.56,9.81,3.66,17.13S85.11,315,85.11,315l0,1s-4.8,6.51-3.45,9.86,13.75,27.91,13.75,27.91l7-1.17a71.19,71.19,0,0,0-7.68-33C86,303,63.16,288.62,63.16,288.62Z" style="opacity:0.2"></path><path d="M59.77,373.69s.5,7.26,3.26,11.5c0,0,.32-5.34.76-10.05,0,0,4.09,10.46,12.16,14.15,0,0-4.76-9.44-6.3-14.15,0,0,16.19,2.88,31.83-5.33v-2.28s-24.12,7.07-39.68,3.52Z" style="opacity:0.2"></path><path d="M70.58,324.83l10,25.48,12.08,4-13.28-.51s-6.17-.89-13.9,3.28c0,0,.35-2.25,3.55-4.15,0,0-1.15-1.12-6,.45a27.3,27.3,0,0,1,8-5.49Z" style="opacity:0.2"></path><path d="M115.05,305c-2.41-2.6,5.75,4.26,6.87,7.62s1.18,7,1.16,10.53-.1,7.15.8,10.58c.6,2.29,1.9,5.49,2.61,7.75,0,0-6.57-.91-8.33.68l1.47-16.62S125,315.8,115.05,305Z" style="opacity:0.2"></path><polyline points="137.51 347.29 154.58 338.74 158.29 339.57" style="fill:none;stroke:#263238;stroke-linecap:round;stroke-linejoin:round;stroke-width:1.0689740180969238px"></polyline><polyline points="153.16 362.35 122.97 354.39 131.64 351.02" style="fill:none;stroke:#263238;stroke-linecap:round;stroke-linejoin:round;stroke-width:1.0689740180969238px"></polyline><line x1="157.88" y1="341.94" x2="129.72" y2="356.06" style="fill:none;stroke:#263238;stroke-linecap:round;stroke-linejoin:round;stroke-width:1.0689740180969238px"></line><line x1="157.45" y1="347.29" x2="136.48" y2="357.81" style="fill:none;stroke:#263238;stroke-linecap:round;stroke-linejoin:round;stroke-width:1.0689740180969238px"></line><line x1="156.54" y1="352.56" x2="142.58" y2="359.56" style="fill:none;stroke:#263238;stroke-linecap:round;stroke-linejoin:round;stroke-width:1.0689740180969238px"></line><line x1="127.49" y1="351.92" x2="154.68" y2="358.97" style="fill:none;stroke:#263238;stroke-linecap:round;stroke-linejoin:round;stroke-width:1.0689740180969238px"></line><line x1="135.21" y1="349.69" x2="155.99" y2="355.09" style="fill:none;stroke:#263238;stroke-linecap:round;stroke-linejoin:round;stroke-width:1.0689740180969238px"></line><line x1="139.42" y1="346.34" x2="156.54" y2="350.78" style="fill:none;stroke:#263238;stroke-linecap:round;stroke-linejoin:round;stroke-width:1.0689740180969238px"></line><line x1="144.63" y1="343.73" x2="157.45" y2="347.06" style="fill:none;stroke:#263238;stroke-linecap:round;stroke-linejoin:round;stroke-width:1.0689740180969238px"></line><line x1="149.97" y1="341.26" x2="158.29" y2="343.41" style="fill:none;stroke:#263238;stroke-linecap:round;stroke-linejoin:round;stroke-width:1.0689740180969238px"></line><path d="M181.39,370.5c5.52,1.92,10,4,10,4" style="fill:none;stroke:#fff;stroke-linecap:round;stroke-linejoin:round;stroke-width:1.0689740180969238px"></path><path d="M111.34,383s47.92-16.25,57-15.65a36.8,36.8,0,0,1,6.57,1.15" style="fill:none;stroke:#fff;stroke-linecap:round;stroke-linejoin:round;stroke-width:1.0689740180969238px"></path><path d="M119.41,380.34c2-2.22,3.25-3.37,4.34-5.16" style="fill:none;stroke:#fff;stroke-linecap:round;stroke-linejoin:round;stroke-width:1.0689740180969238px"></path></g></svg>