<svg id="visual" viewBox="0 0 900 900" width="900" height="900" xmlns="http://www.w3.org/2000/svg" xmlns:xlink="http://www.w3.org/1999/xlink" version="1.1"><rect x="0" y="0" width="900" height="900" fill="#60A5FA"></rect><path d="M0 490L21.5 498.8C43 507.7 86 525.3 128.8 536.8C171.7 548.3 214.3 553.7 257.2 514C300 474.3 343 389.7 385.8 366.7C428.7 343.7 471.3 382.3 514.2 385.7C557 389 600 357 642.8 340.8C685.7 324.7 728.3 324.3 771.2 353.7C814 383 857 442 878.5 471.5L900 501L900 0L878.5 0C857 0 814 0 771.2 0C728.3 0 685.7 0 642.8 0C600 0 557 0 514.2 0C471.3 0 428.7 0 385.8 0C343 0 300 0 257.2 0C214.3 0 171.7 0 128.8 0C86 0 43 0 21.5 0L0 0Z" fill="#0284C7" stroke-linecap="round" stroke-linejoin="miter"></path></svg>