<svg id="visual" viewBox="0 0 900 450" width="900" height="450" xmlns="http://www.w3.org/2000/svg" xmlns:xlink="http://www.w3.org/1999/xlink" version="1.1"><rect x="0" y="0" width="900" height="450" fill="#0284c7"></rect><path d="M0 275L21.5 286.8C43 298.7 86 322.3 128.8 328.7C171.7 335 214.3 324 257.2 305.3C300 286.7 343 260.3 385.8 245.8C428.7 231.3 471.3 228.7 514.2 239.7C557 250.7 600 275.3 642.8 285.7C685.7 296 728.3 292 771.2 300.8C814 309.7 857 331.3 878.5 342.2L900 353L900 451L878.5 451C857 451 814 451 771.2 451C728.3 451 685.7 451 642.8 451C600 451 557 451 514.2 451C471.3 451 428.7 451 385.8 451C343 451 300 451 257.2 451C214.3 451 171.7 451 128.8 451C86 451 43 451 21.5 451L0 451Z" fill="#60a5fa"></path><path d="M0 341L21.5 350.3C43 359.7 86 378.3 128.8 381.7C171.7 385 214.3 373 257.2 366.3C300 359.7 343 358.3 385.8 368.2C428.7 378 471.3 399 514.2 409.8C557 420.7 600 421.3 642.8 413.2C685.7 405 728.3 388 771.2 379.7C814 371.3 857 371.7 878.5 371.8L900 372L900 451L878.5 451C857 451 814 451 771.2 451C728.3 451 685.7 451 642.8 451C600 451 557 451 514.2 451C471.3 451 428.7 451 385.8 451C343 451 300 451 257.2 451C214.3 451 171.7 451 128.8 451C86 451 43 451 21.5 451L0 451Z" fill="#60a5fa"></path></svg>