<svg xmlns="http://www.w3.org/2000/svg" viewBox="0 0 500 500"><g id="freepik--character-2--inject-16"><path d="M277.47,447.71c2.08.7,61.62.91,63.9-.52.87-.54,1.4-9.21,1.75-19.7.08-2.27.14-4.61.2-7l4.82-31.75-39.8-.26-3.76,31.77.15,7s-22.83,10.12-25.16,11.95S275.4,447,277.47,447.71Z" style="fill: rgb(247, 169, 160);"></path><path d="M277.47,447.71c2.08.7,61.62.91,63.9-.52,1.05-.66,1.63-13.32,1.95-26.69l-38.74-.24.15,7s-22.83,10.12-25.16,11.95S275.4,447,277.47,447.71Z" style="fill:#fff"></path><path d="M277.47,447.71c2.08.7,61.62.91,63.9-.52.87-.54,1.4-9.21,1.75-19.7l-38.39-.25s-22.83,10.12-25.16,11.95S275.4,447,277.47,447.71Z" style="fill:#407BFF"></path><path d="M278.34,445.33c10-.21,50.26-.12,60.14.43.08,0,.08.06,0,.07-9.89.42-50.17,0-60.15-.34C278.12,445.48,278.13,445.33,278.34,445.33Z" style="fill:#263238"></path><path d="M283.41,437.06a8,8,0,0,1,6,2.46,7.8,7.8,0,0,1,2.22,5.34c0,.06-.12.06-.13,0a9.25,9.25,0,0,0-8-7.67A.07.07,0,0,1,283.41,437.06Z" style="fill:#263238"></path><path d="M300.86,428.22c4,0,8.62,1.39,11.09,4.66.1.13-.08.26-.2.2a55.82,55.82,0,0,0-11-4.37A.25.25,0,0,1,300.86,428.22Z" style="fill:#263238"></path><path d="M297.77,429.41c4,0,8.62,1.39,11.09,4.67.1.12-.08.26-.2.19a54.93,54.93,0,0,0-11-4.36A.26.26,0,0,1,297.77,429.41Z" style="fill:#263238"></path><path d="M294.68,430.61c4-.05,8.62,1.38,11.1,4.66.09.12-.09.26-.21.2a54.37,54.37,0,0,0-11-4.37A.25.25,0,0,1,294.68,430.61Z" style="fill:#263238"></path><path d="M291.59,431.8c4,0,8.63,1.38,11.1,4.66.09.12-.09.26-.21.2a54.37,54.37,0,0,0-11-4.37A.25.25,0,0,1,291.59,431.8Z" style="fill:#263238"></path><path d="M336,436.27c4.49,0,4.45,7,0,7S331.48,436.24,336,436.27Z" style="fill:#263238"></path><path d="M296.88,423.4c2.14,2.79,5.42,4.56,8.26,6.53a.49.49,0,0,0,.72-.32.1.1,0,0,0,.12-.11,20.94,20.94,0,0,0-3.59-10.23c-1.24-1.75-3.78-3.39-5.81-1.72S295.62,421.78,296.88,423.4Zm-.18-3.31c.42-4.34,4.33-1,5.19.33a23.37,23.37,0,0,1,1.45,2.7,63.2,63.2,0,0,1,2.23,5.93c-1.33-1.06-2.75-2-4.12-3C299.82,424.86,296.48,422.49,296.7,420.09Z" style="fill:#263238"></path><path d="M320.18,427c-.3-2.61-3.28-3.18-5.38-2.79a21.06,21.06,0,0,0-9.68,4.88.1.1,0,0,0,0,.17.48.48,0,0,0,.29.73c3.42.54,7,1.55,10.49,1C317.94,430.71,320.47,429.47,320.18,427Zm-9.41,2.75c-1.69-.22-3.35-.53-5-.69,1.89-.95,3.73-2,5.71-2.73a23.09,23.09,0,0,1,2.92-.94c1.54-.35,6.68-.06,4,3.36C316.83,430.63,312.78,430,310.77,429.75Z" style="fill:#263238"></path><path d="M406.64,241.94s-46.23,78.64-47.47,84.16c-1.9,8.49-12,92.27-12,92.27l-48.1-.86s8.29-73.88,16.14-98.21c5.66-17.53,46.45-75.67,46.45-75.67Z" style="fill:#37474f"></path><path d="M303.46,410.13c6.91-.05,31.39-.32,40.58.53a.07.07,0,0,1,0,.14c-3.16.45-33.67-.26-40.58-.48A.1.1,0,1,1,303.46,410.13Z" style="fill:#263238"></path><path d="M398.75,249.16c-3,4.75-6.23,9.4-9.33,14.11s-6.18,9.43-9.23,14.18q-9.13,14.22-17.84,28.7a88.42,88.42,0,0,0-7.21,14,86,86,0,0,0-4.05,15.09c-.95,5.17-1.57,10.38-2.15,15.59q-.94,8.32-1.86,16.64-1.9,17-3.8,34.06c-.16,1.39-.31,2.79-.45,4.18,0,.21.34.25.37,0,1.41-11.28,2.59-22.59,3.88-33.89L349,355c.59-5.23,1.16-10.46,2-15.67a103.76,103.76,0,0,1,3.39-15.14A72.39,72.39,0,0,1,361,309.48c5.57-9.61,11.47-19.06,17.37-28.48s11.95-19,18.18-28.33c.76-1.15,1.54-2.3,2.34-3.43C399,249.15,398.81,249.07,398.75,249.16Z" style="fill:#263238"></path><path d="M365.77,454.32c2.19.14,61.27-15.43,63.11-17.39a.82.82,0,0,0,.14-.4c.23-1.94-2.79-9.19-4.91-18.48-.13-.59-1.24-3.41-2.8-7.22-4.29-10.45-11.94-28.41-11.94-28.41l-38.57,9.9L385,420.87l1.92,6.71s-19.51,15.61-21.29,18S363.59,454.16,365.77,454.32Z" style="fill: rgb(247, 169, 160);"></path><path d="M365.77,454.32c2.19.14,61.27-15.43,63.11-17.39a.82.82,0,0,0,.14-.4c.23-1.94-2.79-9.19-4.91-18.48-.13-.59-1.24-3.41-2.8-7.22l-36.3,10,1.92,6.71s-19.51,15.61-21.29,18S363.59,454.16,365.77,454.32Z" style="fill:#fff"></path><path d="M365.77,454.31c2.19.16,61.27-15.42,63.11-17.38.7-.74-.83-8.73-4.77-18.88l-37.18,9.54s-19.51,15.59-21.29,18S363.59,454.16,365.77,454.31Z" style="fill:#407BFF"></path><path d="M366,451.79c9.6-2.74,48.58-12.9,58.28-14.89.08,0,.09,0,0,.07-9.45,2.92-48.51,12.77-58.25,15C365.84,452,365.8,451.85,366,451.79Z" style="fill:#263238"></path><path d="M368.81,442.51a8,8,0,0,1,6.39.86,7.81,7.81,0,0,1,3.5,4.6c0,.06-.1.09-.12,0a9.26,9.26,0,0,0-9.74-5.37A.06.06,0,1,1,368.81,442.51Z" style="fill:#263238"></path><path d="M383.43,429.52c3.85-1.06,8.69-.86,11.91,1.68.13.1,0,.28-.14.25A55,55,0,0,0,383.49,430,.25.25,0,0,1,383.43,429.52Z" style="fill:#263238"></path><path d="M380.75,431.46c3.85-1.06,8.69-.86,11.91,1.68.13.1,0,.28-.15.25A54.85,54.85,0,0,0,380.8,432,.25.25,0,0,1,380.75,431.46Z" style="fill:#263238"></path><path d="M378.06,433.4c3.86-1.06,8.69-.86,11.92,1.68.12.1,0,.27-.15.25a54.85,54.85,0,0,0-11.71-1.44A.25.25,0,0,1,378.06,433.4Z" style="fill:#263238"></path><path d="M375.38,435.33c3.85-1.05,8.69-.85,11.91,1.69.13.1,0,.27-.14.24a55.65,55.65,0,0,0-11.71-1.43A.25.25,0,0,1,375.38,435.33Z" style="fill:#263238"></path><path d="M419.44,428.37c4.34-1.12,6.08,5.63,1.73,6.74S415.09,429.48,419.44,428.37Z" style="fill:#263238"></path><path d="M378.35,425.87c2.79,2.15,6.41,3,9.65,4.21a.49.49,0,0,0,.62-.49.1.1,0,0,0,.09-.14,21,21,0,0,0-6.08-9c-1.64-1.37-4.52-2.32-6.06-.18S376.73,424.62,378.35,425.87Zm-1-3.15c-.7-4.31,3.93-2.06,5.1-1a22.16,22.16,0,0,1,2.09,2.24,60.24,60.24,0,0,1,3.67,5.16c-1.56-.68-3.17-1.22-4.75-1.85C381.56,426.53,377.73,425.09,377.34,422.72Z" style="fill:#263238"></path><path d="M401.8,423.42c-.95-2.45-4-2.24-5.91-1.32a20.91,20.91,0,0,0-8.12,7.18.1.1,0,0,0,.05.16.49.49,0,0,0,.47.63c3.45-.35,7.17-.29,10.4-1.68C400.58,427.58,402.71,425.73,401.8,423.42Zm-8.4,5.06c-1.68.21-3.37.34-5,.61a62.51,62.51,0,0,1,4.83-4.09,23.46,23.46,0,0,1,2.58-1.65c1.4-.74,6.45-1.76,4.69,2.23C399.49,427.79,395.42,428.23,393.4,428.48Z" style="fill:#263238"></path><path d="M382.36,419l43.22-11.34s-41.38-81.43-41-87.05c.3-5,30.31-48.68,32-56.86,2.71-13.39-3.81-25.35-10.13-32.75l-44.7,12.6s3.56,7.73,10.1,12.61c0,0-28.09,46.9-28.81,62.34S382.36,419,382.36,419Z" style="fill:#37474f"></path><path d="M381.54,411c6.26-1.79,4.44-1.36,10.73-3.09,3.08-.84,23.31-6.37,26.31-6.66.07,0,.1.1,0,.13-2.76,1.24-23.08,6.42-26.17,7.2-6.32,1.6-4.53,1.07-10.87,2.61C381.47,411.2,381.42,411,381.54,411Z" style="fill:#263238"></path><path d="M364.92,254.44a79.87,79.87,0,0,1,12.37,5.84.13.13,0,1,1-.12.24c-4.17-1.82-8.43-3.56-12.49-5.6A.27.27,0,0,1,364.92,254.44Z" style="fill:#263238"></path><path d="M370.17,253.34a20,20,0,0,1,.8,2.41,5.15,5.15,0,0,1,.31,2,.15.15,0,0,1-.26,0,7.07,7.07,0,0,1-.84-1.93c-.27-.75-.56-1.49-.8-2.24C369.21,253.1,370,252.86,370.17,253.34Z" style="fill:#263238"></path><path d="M370.17,249.29c-.18-.69-.36-1.37-.55-2.06s-.45-1.4-.59-2.12c0-.11-.2-.06-.17,0,.17.69.25,1.41.37,2.11s.26,1.4.4,2.09a37.38,37.38,0,0,0,1,3.88,4.72,4.72,0,0,1-2-.61,3.7,3.7,0,0,1-1.22-1.91c-.28-.78-.53-1.57-.82-2.34a16.27,16.27,0,0,1-.86-2.61c0-.12-.2-.07-.18,0a28.68,28.68,0,0,0,1.59,5.51c.31.7.54,1.42,1.23,1.76a5.94,5.94,0,0,0,2.4.47c.09,0,.23,0,.21-.13C370.77,252.05,370.51,250.64,370.17,249.29Z" style="fill:#263238"></path><path d="M370.91,257.77c-1.7,3.07-3.64,6-5.46,9s-3.46,5.92-5.12,8.92c-3.34,6.06-6.44,12.28-9.27,18.6q-2.1,4.69-4,9.49a71.67,71.67,0,0,0-3.25,9.8,26.84,26.84,0,0,0-.44,10.18A69.69,69.69,0,0,0,346.05,334a181.6,181.6,0,0,0,8.44,22.42c.11.24.51.06.42-.19-2.36-6.66-4.8-13.3-6.93-20-2.05-6.54-4.49-13.32-3.36-20.27a52.81,52.81,0,0,1,2.84-9.75q1.82-4.86,3.88-9.61c2.72-6.25,5.76-12.32,8.88-18.37,1.74-3.39,3.57-6.74,5.34-10.12s3.51-6.88,5.5-10.16C371.12,257.76,371,257.68,370.91,257.77Z" style="fill:#263238"></path><path d="M403.46,251.21c-.81-.13-2,.15-5.49-.09a19.88,19.88,0,0,1-2.88-.47,6.34,6.34,0,0,1-2.67-1.08,14.11,14.11,0,0,1-3.05-4.2,21.26,21.26,0,0,1-2.13-5.18c0-.11-.19-.06-.17.05.19,1,.29,2,.56,3.06a18.13,18.13,0,0,0,1,2.78,11.34,11.34,0,0,0,3.13,4.62c1.58,1.19,3.79,1.41,5.7,1.55,1.11.08,5.46,0,6-.66C403.62,251.48,403.61,251.24,403.46,251.21Z" style="fill:#263238"></path><path d="M414.85,398.36q-8.18-16.62-16-33.45T383.67,331a44.29,44.29,0,0,1-3.23-8.37c-.67-3.17.31-6,1.65-8.87a151.81,151.81,0,0,1,8.35-15.15c3-4.92,6.24-9.73,9.41-14.56a151,151,0,0,0,9-14.72c2.46-4.91,3.83-10.14,3.13-15.64s-3.07-10.58-5.6-15.41c-.67-1.27-1.36-2.53-2-3.81-.05-.09-.2,0-.14.09,2.82,5.06,5.53,10.37,6.85,16a26.09,26.09,0,0,1,.62,8.58,27.19,27.19,0,0,1-2.42,8.37c-2.35,5.16-5.63,9.92-8.72,14.65s-6.38,9.65-9.46,14.55a169.06,169.06,0,0,0-8.61,15.17c-1.14,2.33-2.39,4.76-2.67,7.37-.3,2.87.73,5.61,1.84,8.2,4.8,11.26,9.86,22.43,15,33.54s10.47,22.26,15.88,33.3l2,4.17C414.68,398.69,414.93,398.53,414.85,398.36Z" style="fill:#263238"></path><path d="M360.76,147.6c1-4.57,6.08-14.91,16.11-12.89,14.32,2.89,16.39,30.48,23.52,39.08,12.91,15.58,13.33,31,2.75,33.47-11.86,2.76-23.4-10-23-37.5.27-17.22-4.58-24.85-8-24.34s-5.31,4.86-5.31,4.86Z" style="fill:#263238"></path><path d="M361.24,145.89a27.84,27.84,0,0,1,2.87-6.07,16.49,16.49,0,0,1,4.68-4.92,11.23,11.23,0,0,1,6.62-1.92,14.45,14.45,0,0,1,6.65,1.85,16.12,16.12,0,0,1,5,4.69,29.73,29.73,0,0,1,3.21,6,60.08,60.08,0,0,1,3.32,13,88.61,88.61,0,0,0-4.22-12.59,31.79,31.79,0,0,0-3.27-5.67,15.19,15.19,0,0,0-4.7-4.3,13.42,13.42,0,0,0-6.07-1.75,10.45,10.45,0,0,0-6,1.56,16.85,16.85,0,0,0-4.71,4.44,28.68,28.68,0,0,0-1.83,2.76C362.23,143.89,361.72,144.88,361.24,145.89Z" style="fill:#263238"></path><path d="M380.09,160.27c.15,2.73,0,5.47-.06,8.2s-.17,5.45-.18,8.17.08,5.43.36,8.12a41.31,41.31,0,0,0,1.46,7.91,21,21,0,0,0,3.49,7.1,22.77,22.77,0,0,0,6,5.19,17,17,0,0,0,7.55,2.42,15.5,15.5,0,0,0,4-.21,14.9,14.9,0,0,0,2-.52,7,7,0,0,0,1.84-.85,10.11,10.11,0,0,1-3.73,1.69,15.8,15.8,0,0,1-4.11.51,17,17,0,0,1-4.14-.59,18.12,18.12,0,0,1-3.87-1.59,21.55,21.55,0,0,1-3.46-2.36l-.79-.68-.76-.71a15.21,15.21,0,0,1-1.44-1.56,22.06,22.06,0,0,1-3.76-7.48,52.64,52.64,0,0,1-1.58-16.41c.08-2.74.29-5.47.53-8.19S380,163,380.09,160.27Z" style="fill:#263238"></path><path d="M359.94,147.68c-.16-1.27.61-3,1.41-3.31s7.18,1.74,7.85,3.27-1.91,3.16-1.91,3.16Z" style="fill:#407BFF"></path><path d="M367.58,192.72c-3.93,5.61-32.35,28.82-47.85,29.68-7,.38-34.38-2.6-40.48-5.11-7.49-3.08,7.32-21.63,12-20.84,5.86,1,26.64,3.19,30.78,3.3,6.64.17,27-11,40.71-13.91C369.83,184.35,370.62,188.4,367.58,192.72Z" style="fill: rgb(247, 169, 160);"></path><path d="M367.27,193.78c-4.34,7.57-19.66,20.55-19.66,20.55L345,209.51l-8.64-15.91s14.52-5.78,24.15-8.59a21.74,21.74,0,0,1,3.46-.76C370.19,183.45,371,187.28,367.27,193.78Z" style="fill:#dbdbdb"></path><path d="M367.27,193.78c-4.34,7.57-19.66,20.55-19.66,20.55L345,209.51l-1.78-3.28-6.87-12.62s14.53-5.8,24.16-8.61a23.29,23.29,0,0,1,3.46-.75,2.46,2.46,0,0,1,.37,0C370.22,183.61,370.94,187.41,367.27,193.78Z" style="fill:#dbdbdb"></path><path d="M349.16,189.69a8.95,8.95,0,0,1,0,4.2,8.94,8.94,0,0,1,0-4.2Zm-4.11,8.24a7.81,7.81,0,0,0-2.09.25,8.24,8.24,0,0,0,2.09.25,8.37,8.37,0,0,0,2.1-.25A7.94,7.94,0,0,0,345.05,197.93Zm21.24-11.74a7.94,7.94,0,0,0-2.1.25,7.94,7.94,0,0,0,2.1.25,8.35,8.35,0,0,0,2.09-.25A8.35,8.35,0,0,0,366.29,186.19Zm-8.18,10.44a8.15,8.15,0,0,0,1.66,1.3,8.15,8.15,0,0,0-1.3-1.66,8.44,8.44,0,0,0-1.66-1.3A8.44,8.44,0,0,0,358.11,196.63Zm-8.07,10a8.2,8.2,0,0,0,1.66,1.31,7.82,7.82,0,0,0-1.3-1.66,8.2,8.2,0,0,0-1.66-1.31A7.89,7.89,0,0,0,350,206.63Z" style="fill:#fff"></path><path d="M350.28,210.78c-1.45-2.93-7.85-14.73-9.4-17.19-.11-.17-.24-.15-.16,0a181.73,181.73,0,0,0,9.44,17.19C350.2,210.9,350.32,210.86,350.28,210.78Z" style="fill:#263238"></path><path d="M367.27,193.78c-4.34,7.57-19.66,20.55-19.66,20.55L345,209.51l-1.78-3.28c8.31-8.2,18.32-18.29,21.12-22C370.22,183.61,370.94,187.41,367.27,193.78Z" style="fill:#a6a6a6"></path><path d="M353.1,228.65l2.27,25a84.45,84.45,0,0,0,9.13-.92,214.34,214.34,0,0,0,23.67-4.93c7.73-2,16.79-4.76,27.15-8.44,0,0-23.43-42.26-39.6-53.92-.37-.27-.73-.52-1.1-.75-.07-.06-.14-.09-.21-.14-7.35-4.65-14-1-17.68,4.18-.93,1.3-9.93,21.76-9.48,28.62C347.66,223.38,353.1,228.65,353.1,228.65Z" style="fill:#dbdbdb"></path><path d="M366.1,201.89a7.81,7.81,0,0,1,.25,2.09,7.94,7.94,0,0,1-.25,2.1,7.94,7.94,0,0,1-.25-2.1A8.24,8.24,0,0,1,366.1,201.89Zm5.45,26.18a8.37,8.37,0,0,0,.25,2.1,7.54,7.54,0,0,0,.25-2.1,7.94,7.94,0,0,0-.25-2.1A8.37,8.37,0,0,0,371.55,228.07ZM389,213.17a7.94,7.94,0,0,0,.25,2.1,8.94,8.94,0,0,0,0-4.2A7.94,7.94,0,0,0,389,213.17Zm-32,11.71a7.94,7.94,0,0,0,.25,2.1,8.94,8.94,0,0,0,0-4.2A7.94,7.94,0,0,0,357,224.88Zm20.16-18.43a8.37,8.37,0,0,0-2.1.25,8.95,8.95,0,0,0,4.2,0A8.37,8.37,0,0,0,377.17,206.45Zm14.88,18.65a7.54,7.54,0,0,0-2.1.25,8.95,8.95,0,0,0,4.2,0A7.94,7.94,0,0,0,392.05,225.1Zm-22.62,14.78a7.81,7.81,0,0,0-2.09.25,7.81,7.81,0,0,0,2.09.25,7.94,7.94,0,0,0,2.1-.25A8.37,8.37,0,0,0,369.43,239.88ZM395.77,237a8.3,8.3,0,0,0-2.09.25,8.9,8.9,0,0,0,4.19,0A8.37,8.37,0,0,0,395.77,237Zm-29.48-50.84a7.94,7.94,0,0,0-2.1.25,7.94,7.94,0,0,0,2.1.25,8.35,8.35,0,0,0,2.09-.25A8.35,8.35,0,0,0,366.29,186.19Zm10.7,4.63a8.2,8.2,0,0,0,1.66,1.31,7.58,7.58,0,0,0-1.3-1.66,8.2,8.2,0,0,0-1.66-1.31A8.15,8.15,0,0,0,377,190.82Zm21.85,23.39a8.2,8.2,0,0,0,1.66,1.31,7.89,7.89,0,0,0-1.3-1.66,8.48,8.48,0,0,0-1.66-1.31A8.15,8.15,0,0,0,398.84,214.21Zm-34.94,2.5a8.2,8.2,0,0,0,1.66,1.31,9,9,0,0,0-3-3A8.2,8.2,0,0,0,363.9,216.71ZM384,233.61a8.2,8.2,0,0,0,1.66,1.31,9,9,0,0,0-3-3A8.2,8.2,0,0,0,384,233.61Zm-25.84-37a8.15,8.15,0,0,0,1.66,1.3,8.15,8.15,0,0,0-1.3-1.66,8.44,8.44,0,0,0-1.66-1.3A8.44,8.44,0,0,0,358.11,196.63Zm-1.42,13.14a8.48,8.48,0,0,0,1.31-1.66,7.82,7.82,0,0,0-1.66,1.3,8.2,8.2,0,0,0-1.31,1.66A8.52,8.52,0,0,0,356.69,209.77Zm47.45,17.86a7.82,7.82,0,0,0,1.3-1.66,8.88,8.88,0,0,0-3,3A8.2,8.2,0,0,0,404.14,227.63Zm-44.86,7.16a8.15,8.15,0,0,0,1.3-1.66,8.88,8.88,0,0,0-3,3A8.2,8.2,0,0,0,359.28,234.79Zm26.78-34.47a8.2,8.2,0,0,0,1.31-1.66,7.93,7.93,0,0,0-1.66,1.31,8.2,8.2,0,0,0-1.31,1.66A8.2,8.2,0,0,0,386.06,200.32Zm-6.64,44.9a7.93,7.93,0,0,0,1.31-1.66,7.93,7.93,0,0,0-1.66,1.31,8.2,8.2,0,0,0-1.31,1.66A8.2,8.2,0,0,0,379.42,245.22Zm0-27a7.62,7.62,0,0,0,1.31-1.66,9,9,0,0,0-3,3A7.93,7.93,0,0,0,379.44,218.19Z" style="fill:#fff"></path><path d="M369.82,184.12c-.14,1-4.12,7.5-8.46,7.67-1.42.05-2.05-7.65-2.05-7.65l-.18-.56-2.47-7.81L365.5,169l1.29-.91s.53,2.19,1.17,4.91l.09.39c0,.15.08.29.11.44l.3,1.23c.07.32.14.63.2,1l.21,1A52.09,52.09,0,0,1,369.82,184.12Z" style="fill: rgb(247, 169, 160);"></path><path d="M368,173a16.41,16.41,0,0,1-8.83,10.63l-2.47-7.81L365.5,169l1.29-.91S367.32,170.23,368,173Z" style="fill:#263238"></path><path d="M345.7,164c-.07,14.38,8.54,16.05,11.64,16.06,2.81,0,12.4-.31,14-14.61s-5.11-18.87-11.54-19.24S345.77,149.59,345.7,164Z" style="fill: rgb(247, 169, 160);"></path><path d="M370.51,166.42c-2.35.24-3-4.69-3-4.69s-4.79.14-6.54-6.72a10.61,10.61,0,0,0,2.26,5.65S354.74,160,351,153c0,0,1.51,3.57,2.87,4.82a10,10,0,0,1-5.37-3.74s-1.38,4.12-2.49,5.27c0,0-1.64-7.24,1.37-11,6.34-8,16.75-1,16.75-1s5.82.88,7.9,5.24C375.24,159.26,370.51,166.42,370.51,166.42Z" style="fill:#263238"></path><path d="M369,166.51s2.76-4.73,4.89-3.78.3,7.63-2,8.71a2.43,2.43,0,0,1-3.35-1Z" style="fill: rgb(247, 169, 160);"></path><path d="M373.32,164.63a0,0,0,0,1,0,.07,6.16,6.16,0,0,0-2.85,4.09,1.34,1.34,0,0,1,2-.53c.05,0,0,.1,0,.09a1.48,1.48,0,0,0-1.59.66,6.89,6.89,0,0,0-.68,1.39c-.07.15-.34.1-.3-.08v0C369.63,168.15,371.05,165,373.32,164.63Z" style="fill:#263238"></path><path d="M347.5,161.09a8.08,8.08,0,0,0,1-.24,1.62,1.62,0,0,0,.94-.44.51.51,0,0,0,0-.63,1.29,1.29,0,0,0-1.27-.25,1.89,1.89,0,0,0-1.15.71A.55.55,0,0,0,347.5,161.09Z" style="fill:#263238"></path><path d="M356.88,162.21a8.5,8.5,0,0,1-1-.16,1.62,1.62,0,0,1-1-.37.5.5,0,0,1,0-.63,1.25,1.25,0,0,1,1.24-.34,1.94,1.94,0,0,1,1.21.61A.55.55,0,0,1,356.88,162.21Z" style="fill:#263238"></path><path d="M355,165.15s.07,0,.07.09c0,1,.13,2.12,1,2.43a0,0,0,0,1,0,.06C355,167.59,354.79,166.09,355,165.15Z" style="fill:#263238"></path><path d="M355.83,164.11c1.58-.15,1.76,3,.29,3.17S354.5,164.23,355.83,164.11Z" style="fill:#263238"></path><path d="M356.46,164.24c.29.17.58.47.92.49s.66-.34.9-.67c0,0,.05,0,.05,0,0,.61-.16,1.25-.8,1.38s-1-.4-1.24-1C356.26,164.35,356.35,164.18,356.46,164.24Z" style="fill:#263238"></path><path d="M349.49,165.2s-.08.05-.07.09c.09,1,0,2.13-.84,2.51,0,0,0,.06,0,0C349.67,167.63,349.73,166.12,349.49,165.2Z" style="fill:#263238"></path><path d="M348.54,164.23c-1.59,0-1.51,3.16,0,3.18S349.88,164.25,348.54,164.23Z" style="fill:#263238"></path><path d="M347.89,164.45c-.25.18-.49.49-.79.52s-.62-.31-.85-.64c0,0-.05,0-.05,0,0,.61.22,1.24.81,1.34s.91-.44,1-1.05C348.08,164.55,348,164.38,347.89,164.45Z" style="fill:#263238"></path><path d="M356.22,173.19c-.21.26-.41.6-.77.66a2.5,2.5,0,0,1-1.08-.14,0,0,0,0,0,0,.06,1.3,1.3,0,0,0,1.29.4,1,1,0,0,0,.69-.94C356.33,173.17,356.25,173.16,356.22,173.19Z" style="fill:#263238"></path><path d="M351.14,169.56S351,171,351,171.73a14.94,14.94,0,0,1,4,.42c.31.09.29-.17-.06-.36a6,6,0,0,0-3.41-.69c-.05-.19.26-2.27.15-2.27a5.87,5.87,0,0,0-1.56.42c.2-3.09.9-6.13,1.05-9.21a.09.09,0,0,0-.18,0,50.36,50.36,0,0,0-1.56,9.86C349.46,170.27,350.87,169.69,351.14,169.56Z" style="fill:#263238"></path><path d="M352.63,171.73a3.81,3.81,0,0,0,2,1.36c1.21.12,1.29-1-.06-1.51A3.61,3.61,0,0,0,352.63,171.73Z" style="fill:#263238"></path><path d="M354.65,173.09a2.51,2.51,0,0,1-1.23-.58c.22-.39.78-.83,2.1-.2C355.73,172.77,355.42,173.17,354.65,173.09Z" style="fill:#ff99ba"></path><path d="M367.71,182.4c1.76,0,4.72.44,8.72,3.48,0,0-8.34,6.71-16.1,6.71-2.77,0-3.6-3.87-3.6-3.87S360.46,182.46,367.71,182.4Z" style="fill: rgb(247, 169, 160);"></path><path d="M499.46,470.32H466.79c-23.74,0-38.26-16.41-40.87-46.2-1.29-14.69-2.08-32.47-2.91-51.29-2.56-57.83-6.07-137-28.58-137H368.56v-6h25.87c28.24,0,31.46,72.57,34.57,142.75.83,18.76,1.62,36.48,2.9,51,1.63,18.58,9,40.73,34.89,40.73h32.67Z" style="fill:#407BFF"></path><polygon points="387.56 229.81 386.28 235.81 368.56 235.81 368.56 229.81 387.56 229.81" style="opacity:0.2"></polygon><rect x="309.34" y="196.9" width="10.46" height="73.09" style="fill:#407BFF"></rect><rect x="269.58" y="202.3" width="39.77" height="61.54" style="fill:#407BFF"></rect><polygon points="309.34 202.31 309.34 263.85 299.46 263.85 295.03 202.31 309.34 202.31" style="opacity:0.2"></polygon><path d="M239.06,213.35h30.51a0,0,0,0,1,0,0v9.2a0,0,0,0,1,0,0H239.06a3.94,3.94,0,0,1-3.94-3.94V217.3A3.94,3.94,0,0,1,239.06,213.35Z" style="fill:#dbdbdb"></path><rect x="258.86" y="213.35" width="10.71" height="9.19" style="fill:#a6a6a6"></rect><path d="M239.06,243.6h30.51a0,0,0,0,1,0,0v9.2a0,0,0,0,1,0,0H239.06a3.94,3.94,0,0,1-3.94-3.94v-1.31A3.94,3.94,0,0,1,239.06,243.6Z" style="fill:#dbdbdb"></path><rect x="258.86" y="243.6" width="10.71" height="9.19" style="fill:#a6a6a6"></rect><rect x="350.54" y="227.2" width="31.07" height="12.27" style="fill:#407BFF"></rect><rect x="350.54" y="227.21" width="31.07" height="12.27" style="fill:#407BFF"></rect><polygon points="361.45 227.21 360.43 239.48 350.54 239.48 350.54 227.21 361.45 227.21" style="opacity:0.2"></polygon><path d="M319.8,204.62h24.59a6.15,6.15,0,0,1,6.15,6.15v44.61a6.15,6.15,0,0,1-6.15,6.15H319.8a0,0,0,0,1,0,0V204.62A0,0,0,0,1,319.8,204.62Z" style="fill:#407BFF"></path><polygon points="332.88 204.62 328.45 261.53 319.81 261.53 319.81 204.62 332.88 204.62" style="opacity:0.2"></polygon><g style="opacity:0.2"><rect x="328.63" y="216.12" width="1.96" height="33.9"></rect><rect x="334.19" y="216.12" width="1.96" height="33.9"></rect><rect x="339.75" y="216.12" width="1.96" height="33.9"></rect></g><path d="M378.73,192.87c3.44,9.65-1.49,45-7.32,52.49-8.66,11.1-25.77,21.31-32.31,24.5-2.86,1.39-15.67-19.09-12.88-21,6-4.11,25.11-13.92,26.73-15.87s10.34-20.68,13.83-31.21C371.47,187.64,377,188,378.73,192.87Z" style="fill: rgb(247, 169, 160);"></path><path d="M339.08,269.92c-9.07,5.18-27.12,4.42-29.58,3.67l-3.18-1c-3.79-1.07-4.81-3.16-4.81-3.16s-4.74.06-5.26-2.8c-.58-3.21,6.19-2.67,10.1-4.65,9-4.53,20.42-13.49,22.87-15.05Z" style="fill: rgb(247, 169, 160);"></path><path d="M319.08,263.84a62.81,62.81,0,0,1-8.07,3.53,65.86,65.86,0,0,1-9.43,2,.08.08,0,0,0,0,.15,34.25,34.25,0,0,0,17.61-5.44C319.32,264,319.21,263.78,319.08,263.84Z" style="fill:#263238"></path><path d="M322.6,268.85c-2.66,1.1-7.35,3-16.29,3.66,0,0,0,.05,0,.06a30.68,30.68,0,0,0,16.39-3.45C322.86,269,322.78,268.78,322.6,268.85Z" style="fill:#263238"></path><path d="M316.8,255.85c.93-1,.38-1.54-2.08-1.1s-11.81,4.3-12.88.93,12.21-8.63,16.36-9.06a69.46,69.46,0,0,1,11.24.33C327.06,248.49,321.42,252.77,316.8,255.85Z" style="fill: rgb(247, 169, 160);"></path><path d="M369.08,195.3c6.05-12.73,11.57-9.36,12.1,3.23A200.33,200.33,0,0,1,380,224.71l-21.93-6.28S365.21,203.45,369.08,195.3Z" style="fill:#dbdbdb"></path><path d="M374.54,187.88a9,9,0,0,1,3,3,9,9,0,0,1-3-3ZM365.85,204a7.94,7.94,0,0,0,.25,2.1,7.94,7.94,0,0,0,.25-2.1,7.81,7.81,0,0,0-.25-2.09A8.24,8.24,0,0,0,365.85,204Zm11.32,2.47a8.37,8.37,0,0,0-2.1.25,8.95,8.95,0,0,0,4.2,0A8.37,8.37,0,0,0,377.17,206.45ZM363.9,216.71a8.2,8.2,0,0,0,1.66,1.31,9,9,0,0,0-3-3A8.2,8.2,0,0,0,363.9,216.71Zm15.54,1.48a7.62,7.62,0,0,0,1.31-1.66,9,9,0,0,0-3,3A7.93,7.93,0,0,0,379.44,218.19Z" style="fill:#fff"></path><path d="M367,199.18c-.82,1.67-1.68,3.31-2.54,5q.22-1.17.36-2.37a0,0,0,0,0-.06,0c-.12.62-.27,1.24-.39,1.86-.05.3-.11.6-.17.9,0,.06,0,.12,0,.19-.67,1.28-1.33,2.57-2,3.87-.76,1.56-1.47,3.13-2.19,4.7s-1.39,3.49-2.2,5.08a10.76,10.76,0,0,0,2.14.64c.19.07.29-.12.09-.15s-1.84-.68-1.86-.69c.72-1.59,1.61-3.09,2.37-4.65s1.54-3.1,2.27-4.67c1.48-3.18,2.78-6.45,4.25-9.64C367.07,199.17,367,199.14,367,199.18Z" style="fill:#263238"></path><path d="M382.09,206.76c-.2.65-.43,1.3-.6,2-.06.28-.13.55-.2.83q.12-3.42.22-6.82s0,0,0,0c-.31,3.72-.63,7.43-.87,11.15a103.8,103.8,0,0,0-.49,10.72,12.85,12.85,0,0,0-2-.31,9.63,9.63,0,0,0,2.27.65c.55-3.6.59-7.58.77-11.2.05-1,.08-2,.12-3.07.12-.63.3-1.25.47-1.87s.3-1.34.44-2C382.17,206.74,382.1,206.72,382.09,206.76Z" style="fill:#263238"></path><path d="M379.11,221.39c-3.09-1.1-15.89-5.14-18.71-5.83-.2-.05-.28.06-.08.13a177.91,177.91,0,0,0,18.74,5.81C379.14,221.53,379.19,221.41,379.11,221.39Z" style="fill:#263238"></path><path d="M271.6,218c3,.92,2.39-3.18,2.39-3.18s2.35,5.68,5.84,5.43,2.41-5.18,2.35-5.54c.12.3,2.42,5.46,5.9,4.85s1.81-5.43,1.69-5.73c.21.24,3,3.43,5.56,2.36,4.36-1.84-2.6-10.2-2.09-14l6.13.18a5.77,5.77,0,0,0,.6-.09l.23-3.13a39.9,39.9,0,0,1-5.66-2.84c-2.31-1.3-4.54-2.48-6.2-2.52a3.47,3.47,0,0,0-3.45,2.29s-1.8-2.84-4.56-2.44c-1.41.21-2.33,2.66-2.33,2.66a4.15,4.15,0,0,0-4-1.71c-1.94.4-2.56,2.8-2.56,2.8s-2.46-1.45-4.31-.39C263.42,199.06,265.12,216,271.6,218Z" style="fill: rgb(247, 169, 160);"></path><path d="M294,201.83l5.34.49a5.77,5.77,0,0,0,.6-.09c6.74-1.22,10.94-8.94,6-9.49-3.71-.43-7.73,4.5-11.48,3.51h0Z" style="fill: rgb(247, 169, 160);"></path><path d="M271.31,197.7a0,0,0,0,0-.09,0A29.45,29.45,0,0,0,274,215c.09.17.4.09.34-.11A60.17,60.17,0,0,1,271.31,197.7Z" style="fill:#263238"></path><path d="M278,196.17c0-.07-.11-.07-.12,0A27.59,27.59,0,0,0,282,214.86c.13.19.44.23.3,0C280.08,211,278,201.66,278,196.17Z" style="fill:#263238"></path><path d="M290.17,214.07c-3.45-5.44-4.82-11.44-5.33-17.8,0-.08-.12-.06-.14,0-.59,3.18.16,7.2,1,10.28a17,17,0,0,0,4.27,7.63C290.07,214.27,290.25,214.19,290.17,214.07Z" style="fill:#263238"></path></g></svg>