<svg xmlns="http://www.w3.org/2000/svg" viewBox="0 0 500 500"><g id="freepik--background-simple--inject-6"><path d="M469.86,316.39c-14.73,39.43-44.81,82.11-87.14,94.75-64,19.1-71.6,70.65-186.16,65.87A230.92,230.92,0,0,1,147,469.75,194.41,194.41,0,0,1,123.73,462C56.8,434.89,21.89,375.23,19,312.81c-3.82-82.11,53.46-121.24,90.69-144.15S191.79,57,304.44,60.77a224.06,224.06,0,0,1,50.92,7.44c37.91,10.26,76.44,33,98.84,66.12q2.52,3.75,4.82,7.64C489,192.82,489.93,262.63,469.86,316.39Z" style="fill:#407BFF"></path><path d="M469.86,316.39c-14.73,39.43-44.81,82.11-87.14,94.75-64,19.1-71.6,70.65-186.16,65.87A230.92,230.92,0,0,1,147,469.75,194.41,194.41,0,0,1,123.73,462C56.8,434.89,21.89,375.23,19,312.81c-3.82-82.11,53.46-121.24,90.69-144.15S191.79,57,304.44,60.77a224.06,224.06,0,0,1,50.92,7.44c37.91,10.26,76.44,33,98.84,66.12q2.52,3.75,4.82,7.64C489,192.82,489.93,262.63,469.86,316.39Z" style="fill:#fff;opacity:0.7000000000000001"></path></g><g id="freepik--Bricks--inject-6"><rect x="408" y="343.29" width="42" height="17" style="opacity:0.2"></rect><rect x="404" y="191.79" width="42" height="17" style="opacity:0.2"></rect><rect x="252" y="251.79" width="42" height="17" style="opacity:0.2"></rect><rect x="272" y="152.5" width="42" height="17" style="opacity:0.2"></rect><rect x="359" y="133.5" width="42" height="17" style="opacity:0.2"></rect><rect x="61" y="337.5" width="42" height="17" style="opacity:0.2"></rect><rect x="158" y="398.5" width="42" height="17" style="opacity:0.2"></rect><rect x="381" y="215.29" width="42" height="17" style="opacity:0.1"></rect><rect x="337" y="309.79" width="42" height="17" style="opacity:0.1"></rect><rect x="36" y="310.79" width="42" height="17" style="opacity:0.1"></rect><rect x="246" y="336.79" width="42" height="17" style="opacity:0.1"></rect><rect x="250" y="312.79" width="42" height="17" style="opacity:0.1"></rect><rect x="429" y="215.29" width="42" height="17" style="opacity:0.1"></rect><rect x="304" y="396.79" width="42" height="17" style="opacity:0.2"></rect><rect x="281" y="420.29" width="42" height="17" style="opacity:0.1"></rect><rect x="329" y="420.29" width="42" height="17" style="opacity:0.1"></rect><rect x="100.39" y="185.2" width="42" height="17" style="opacity:0.2"></rect><rect x="77.39" y="208.7" width="42" height="17" style="opacity:0.1"></rect><rect x="125.39" y="208.7" width="42" height="17" style="opacity:0.1"></rect><rect x="84" y="311.79" width="42" height="17" style="opacity:0.2"></rect><rect x="270" y="230.5" width="42" height="17" style="opacity:0.1"></rect><rect x="207" y="397.5" width="42" height="17" style="opacity:0.1"></rect><rect x="337" y="112.5" width="42" height="17" style="opacity:0.1"></rect><rect x="60" y="255.5" width="42" height="17" style="opacity:0.2"></rect><rect x="84" y="234.5" width="42" height="17" style="opacity:0.1"></rect><rect x="191" y="147.29" width="42" height="17" style="opacity:0.1"></rect><rect x="337" y="252.29" width="42" height="17" style="opacity:0.2"></rect><rect x="306.39" y="343.2" width="42" height="17" style="opacity:0.2"></rect><rect x="99" y="116.5" width="42" height="17" style="opacity:0.1"></rect><rect x="147" y="116.5" width="42" height="17" style="opacity:0.1"></rect><rect x="332" y="365.5" width="42" height="17" style="opacity:0.1"></rect><rect x="33" y="169.5" width="42" height="17" style="opacity:0.1"></rect><rect x="358.39" y="343.7" width="42" height="17" style="opacity:0.2"></rect><rect x="327" y="147.29" width="42" height="17" style="opacity:0.1"></rect><rect x="235" y="116.5" width="42" height="17" style="opacity:0.1"></rect><rect x="283" y="116.5" width="42" height="17" style="opacity:0.1"></rect></g><g id="freepik--Plant--inject-6"><path d="M67.18,162.09c3.72-3.66,10.42-2.87,10.42-2.87s.69,6.72-3,10.38-10.42,2.87-10.42,2.87S63.47,165.75,67.18,162.09Z" style="fill:#263238;stroke:#263238;stroke-miterlimit:10"></path><path d="M71.9,150c4.56,2.52,5.7,9.18,5.7,9.18s-6.24,2.56-10.8,0-5.71-9.18-5.71-9.18S67.34,147.51,71.9,150Z" style="fill:#263238;stroke:#263238;stroke-miterlimit:10"></path><line x1="84.97" y1="35.75" x2="84.97" y2="168.63" style="fill:none;stroke:#263238;stroke-miterlimit:10"></line><path d="M86.68,153.34c-2.44,4.61-9.08,5.88-9.08,5.88s-2.67-6.2-.23-10.81,9.07-5.87,9.07-5.87S89.12,148.74,86.68,153.34Z" style="fill:#263238;stroke:#263238;stroke-miterlimit:10"></path><path d="M80.51,169.63c-3.67-3.7-2.91-10.41-2.91-10.41s6.72-.71,10.39,3,2.9,10.42,2.9,10.42S84.18,173.33,80.51,169.63Z" style="fill:#263238;stroke:#263238;stroke-miterlimit:10"></path><path d="M89.72,163.64c4.93-1.69,10.64,1.93,10.64,1.93s-2.29,6.35-7.22,8-10.64-1.92-10.64-1.92S84.79,165.33,89.72,163.64Z" style="fill:#263238;stroke:#263238;stroke-miterlimit:10"></path><path d="M99.19,154.82c3,4.25,1.17,10.75,1.17,10.75s-6.74-.4-9.76-4.65-1.16-10.75-1.16-10.75S96.18,150.57,99.19,154.82Z" style="fill:#263238;stroke:#263238;stroke-miterlimit:10"></path><path d="M111.08,164.2c-4.19,3.1-10.72,1.37-10.72,1.37s.27-6.75,4.46-9.85,10.73-1.36,10.73-1.36S115.27,161.11,111.08,164.2Z" style="fill:#263238;stroke:#263238;stroke-miterlimit:10"></path><path d="M98.46,176.21c-1.7-4.93,1.9-10.64,1.9-10.64s6.36,2.27,8.06,7.19-1.89,10.65-1.89,10.65S100.17,181.14,98.46,176.21Z" style="fill:#263238;stroke:#263238;stroke-miterlimit:10"></path><path d="M55.93,162.84c4.51,1.69,6.46,7.62,6.46,7.62S57,173.65,52.52,172s-6.46-7.62-6.46-7.62S51.42,161.15,55.93,162.84Z" style="fill:#263238;stroke:#263238;stroke-miterlimit:10"></path><path d="M67.87,162.11c-.34,4.81-5.48,8.35-5.48,8.35s-4.57-4.24-4.23-9.05,5.48-8.35,5.48-8.35S68.22,157.31,67.87,162.11Z" style="fill:#263238;stroke:#263238;stroke-miterlimit:10"></path><path d="M70.84,175.79c-4.81-.26-8.45-5.33-8.45-5.33s4.16-4.65,9-4.4,8.45,5.33,8.45,5.33S75.65,176,70.84,175.79Z" style="fill:#263238;stroke:#263238;stroke-miterlimit:10"></path><path d="M54.79,176.94c1.68-4.51,7.6-6.48,7.6-6.48s3.21,5.36,1.53,9.87-7.6,6.48-7.6,6.48S53.11,181.46,54.79,176.94Z" style="fill:#263238;stroke:#263238;stroke-miterlimit:10"></path><path d="M98.18,168.15c4.93-1.69,10.64,1.93,10.64,1.93s-2.29,6.35-7.22,8S91,176.2,91,176.2,93.25,169.84,98.18,168.15Z" style="fill:#407BFF"></path><path d="M107.65,159.33c3,4.25,1.17,10.75,1.17,10.75s-6.75-.4-9.76-4.65-1.17-10.75-1.17-10.75S104.64,155.08,107.65,159.33Z" style="fill:#407BFF"></path><path d="M119.54,168.71c-4.2,3.1-10.72,1.37-10.72,1.37s.27-6.75,4.46-9.85S124,158.87,124,158.87,123.73,165.62,119.54,168.71Z" style="fill:#407BFF"></path><path d="M106.92,180.72c-1.7-4.93,1.9-10.64,1.9-10.64s6.36,2.27,8.06,7.2S115,187.92,115,187.92,108.63,185.65,106.92,180.72Z" style="fill:#407BFF"></path><path d="M82.39,206a8.27,8.27,0,0,1,6.76,3.94,19.13,19.13,0,0,1,2.26,8.46S81.82,217.22,82.39,206Z" style="fill:#263238;stroke:#263238;stroke-miterlimit:10"></path><path d="M85.77,229.07A8.29,8.29,0,0,1,92.54,233a19.2,19.2,0,0,1,2.25,8.46S85.21,240.34,85.77,229.07Z" style="fill:#263238;stroke:#263238;stroke-miterlimit:10"></path><path d="M93.1,252.19a8.29,8.29,0,0,1,6.77,3.94,19.2,19.2,0,0,1,2.25,8.46S92.54,263.46,93.1,252.19Z" style="fill:#263238;stroke:#263238;stroke-miterlimit:10"></path><path d="M81.51,216a8.29,8.29,0,0,1,1.23,7.73,19.2,19.2,0,0,1-5.12,7.11S72.42,222.72,81.51,216Z" style="fill:#263238;stroke:#263238;stroke-miterlimit:10"></path><path d="M88.49,243.32a8.3,8.3,0,0,1,1.23,7.74,19.22,19.22,0,0,1-5.12,7.1S79.4,250,88.49,243.32Z" style="fill:#263238;stroke:#263238;stroke-miterlimit:10"></path><path d="M81.26,200.87s-.57,33.27,14.66,57" style="fill:none;stroke:#263238;stroke-miterlimit:10"></path><path d="M114.31,187.78a7.13,7.13,0,0,0-5.83,3.4,16.53,16.53,0,0,0-1.94,7.29S114.8,197.5,114.31,187.78Z" style="fill:#263238;stroke:#263238;stroke-miterlimit:10"></path><path d="M111.4,207.7a7.13,7.13,0,0,0-5.83,3.4,16.46,16.46,0,0,0-1.95,7.29S111.88,217.42,111.4,207.7Z" style="fill:#263238;stroke:#263238;stroke-miterlimit:10"></path><path d="M105.08,227.62a7.13,7.13,0,0,0-5.83,3.4,16.53,16.53,0,0,0-1.94,7.29S105.57,237.34,105.08,227.62Z" style="fill:#263238;stroke:#263238;stroke-miterlimit:10"></path><path d="M115.07,196.46a7.15,7.15,0,0,0-1.06,6.67,16.48,16.48,0,0,0,4.41,6.11S122.9,202.24,115.07,196.46Z" style="fill:#263238;stroke:#263238;stroke-miterlimit:10"></path><path d="M109.05,220a7.15,7.15,0,0,0-1.06,6.67,16.55,16.55,0,0,0,4.42,6.12S116.88,225.76,109.05,220Z" style="fill:#263238;stroke:#263238;stroke-miterlimit:10"></path><path d="M115.28,183.41s.49,28.67-12.63,49.07" style="fill:none;stroke:#263238;stroke-miterlimit:10"></path><path d="M45.85,172.11A39.76,39.76,0,0,0,85,204.82h0a39.76,39.76,0,0,0,39.12-32.71Z" style="fill:#fff;stroke:#263238;stroke-miterlimit:10"></path><path d="M102.73,169.29a249.57,249.57,0,0,1-5.07,40.4c-4.52,20.85-4,31.28,0,46.92s.56,23.46-1.7,31.93-4.51,15.64-4.51,15.64" style="fill:none;stroke:#263238;stroke-miterlimit:10"></path><path d="M101.6,183s-6.76,5.21-7.33,10.42a31.52,31.52,0,0,0,.57,9.78S103.29,200.57,101.6,183Z" style="fill:#407BFF"></path><path d="M96,217.51s-6.76,5.21-7.33,10.43a31.43,31.43,0,0,0,.57,9.77S97.66,235.11,96,217.51Z" style="fill:#407BFF"></path><path d="M97.09,257.91s-6.77,5.22-7.33,10.43a31.61,31.61,0,0,0,.56,9.77S98.78,275.51,97.09,257.91Z" style="fill:#407BFF"></path><path d="M93.71,295.71s-6.77,5.21-7.33,10.42a31.3,31.3,0,0,0,.56,9.78S95.4,313.3,93.71,295.71Z" style="fill:#407BFF"></path><path d="M102.73,180.37a8,8,0,0,1,6.77,4.56,25,25,0,0,1,2.25,9.77S102.17,193.4,102.73,180.37Z" style="fill:#407BFF"></path><path d="M98.78,209a8,8,0,0,1,6.77,4.56,25,25,0,0,1,2.26,9.78S98.22,222.07,98.78,209Z" style="fill:#407BFF"></path><path d="M96,241a8,8,0,0,1,6.77,4.56,25,25,0,0,1,2.26,9.78S95.4,254,96,241Z" style="fill:#407BFF"></path><path d="M99.35,276.16a8,8,0,0,1,6.76,4.56,25,25,0,0,1,2.26,9.78S98.78,289.19,99.35,276.16Z" style="fill:#407BFF"></path><path d="M67.28,171.76s-4.59,6.55-4.59,17.27,10.15,23.68,9,37.22-3.39,18-3.39,31S70,275.31,70,275.31" style="fill:none;stroke:#263238;stroke-miterlimit:10"></path><path d="M61.56,185.64s-6.76,0-8.45,4.52a23.09,23.09,0,0,0-1.7,7.33s5.08-.57,6.77-3.39A49.22,49.22,0,0,0,61.56,185.64Z" style="fill:#407BFF"></path><path d="M65.51,202.56s-6.76,4.51-7.33,9a23.66,23.66,0,0,0,.57,8.46S67.2,217.79,65.51,202.56Z" style="fill:#407BFF"></path><path d="M67.77,254.44s-6.77,4.51-7.33,9a23.53,23.53,0,0,0,.56,8.46S69.46,269.67,67.77,254.44Z" style="fill:#407BFF"></path><path d="M70.59,230.19s-6.77,4.51-7.33,9a23.56,23.56,0,0,0,.56,8.46S72.28,245.42,70.59,230.19Z" style="fill:#407BFF"></path><path d="M62.69,189A8.29,8.29,0,0,1,69.46,193a19.07,19.07,0,0,1,2.26,8.45S62.13,200.31,62.69,189Z" style="fill:#407BFF"></path><path d="M69.46,244.86a8.29,8.29,0,0,1,6.77,3.94,19.2,19.2,0,0,1,2.25,8.46S68.9,256.13,69.46,244.86Z" style="fill:#407BFF"></path><path d="M69.46,275.87a8.29,8.29,0,0,1,6.77,3.95,19.2,19.2,0,0,1,2.25,8.46S68.9,287.15,69.46,275.87Z" style="fill:#407BFF"></path><path d="M71.15,215.53a8.29,8.29,0,0,1,6.77,3.95,19.2,19.2,0,0,1,2.25,8.46S70.59,226.81,71.15,215.53Z" style="fill:#407BFF"></path><path d="M63.12,157.6c3.56,3.8,2.61,10.49,2.61,10.49s-6.73.52-10.3-3.28-2.61-10.49-2.61-10.49S59.55,153.8,63.12,157.6Z" style="fill:#407BFF"></path><path d="M75.05,162.62c-2.64,4.49-9.32,5.47-9.32,5.47s-2.4-6.31.23-10.81,9.33-5.47,9.33-5.47S77.69,158.12,75.05,162.62Z" style="fill:#407BFF"></path><path d="M71.38,177.31c-4.55-2.56-5.65-9.22-5.65-9.22s6.27-2.52,10.81,0,5.65,9.22,5.65,9.22S75.92,179.86,71.38,177.31Z" style="fill:#407BFF"></path><path d="M55.25,170.73c3.79-3.57,10.48-2.64,10.48-2.64s.54,6.73-3.25,10.31S52,181,52,181,51.46,174.31,55.25,170.73Z" style="fill:#407BFF"></path><path d="M81.77,169c3.71-3.66,10.42-2.87,10.42-2.87s.69,6.72-3,10.38-10.42,2.87-10.42,2.87S78.06,172.7,81.77,169Z" style="fill:#407BFF"></path><path d="M86.48,157c4.56,2.52,5.71,9.18,5.71,9.18s-6.25,2.56-10.81,0S75.67,157,75.67,157,81.92,154.46,86.48,157Z" style="fill:#407BFF"></path><path d="M101.26,160.29c-2.44,4.61-9.07,5.88-9.07,5.88S89.51,160,92,155.36s9.07-5.87,9.07-5.87S103.7,155.69,101.26,160.29Z" style="fill:#407BFF"></path><path d="M95.09,176.58c-3.67-3.7-2.9-10.41-2.9-10.41s6.71-.71,10.38,3,2.91,10.42,2.91,10.42S98.76,180.28,95.09,176.58Z" style="fill:#407BFF"></path><polyline points="45.85 172.11 84.97 35.75 124.09 172.11" style="fill:none;stroke:#263238;stroke-miterlimit:10"></polyline><rect x="79.79" y="29" width="10.36" height="13.5" style="fill:#fff;stroke:#263238;stroke-miterlimit:10"></rect></g><g id="freepik--Character--inject-6"><path d="M213.2,190.85s-17.68-4-30.54,2.81-14.46,16.48-18.08,29.74-12.05,27.32-19.69,39,4.82,28.53,24.11,35.36,52.64,6,67.51-2.81,10-24.11,6.43-36.16-5.63-19.29-5.63-23.31,7.65-6.67,2.41-22.9C235.71,200.09,223.65,188.44,213.2,190.85Z" style="fill:#263238;stroke:#263238;stroke-linecap:round;stroke-linejoin:round"></path><path d="M166.53,243.15c-3.34,1.33-5.38,1.91-5.38,1.91" style="fill:none;stroke:#828282;stroke-linecap:round;stroke-linejoin:round"></path><path d="M209.6,206.37s-4.7,12.3-19.53,23.5a102.5,102.5,0,0,1-18.76,11.23" style="fill:none;stroke:#828282;stroke-linecap:round;stroke-linejoin:round"></path><path d="M196.28,203.32c-2.77,3.54-7.26,9.25-13.8,17.52-12.29,15.54-15.55,18.43-21,20.24" style="fill:none;stroke:#828282;stroke-linecap:round;stroke-linejoin:round"></path><path d="M199.84,198.78l-1.92,2.45" style="fill:none;stroke:#828282;stroke-linecap:round;stroke-linejoin:round"></path><path d="M214.3,194.44s13.38,10.85,9,18.44" style="fill:none;stroke:#828282;stroke-linecap:round;stroke-linejoin:round"></path><path d="M238.53,217.53a9.57,9.57,0,0,1-.37,6.56" style="fill:none;stroke:#828282;stroke-linecap:round;stroke-linejoin:round"></path><path d="M221.89,201.31s10.76,5.47,15.18,12.92" style="fill:none;stroke:#828282;stroke-linecap:round;stroke-linejoin:round"></path><path d="M251.86,425.92c-3.11.94-51.35,22.1-66,27.08a125.39,125.39,0,0,1-28.33,5.92l7.11,14.69a241.1,241.1,0,0,0,31.9,3.4c44.16,1.84,72.42-4.69,94.15-14.5-3.6-8.61-9.85-22.91-14.26-29.43C269.92,423.43,255,425,251.86,425.92Z" style="fill:#263238;stroke:#263238;stroke-linecap:round;stroke-linejoin:round"></path><path d="M232.84,436c23.83-6.62,32.79-9,44.86-2.87-1.25-2.49-7.16-11.82-7.16-11.82-10.58-2.81-45.13,5.91-72.21,16.8s-43.58,2.18-43.58,2.18-.31,19.61,6.54,21.17C161.29,461.41,209,442.57,232.84,436Z" style="fill:#407BFF;stroke:#263238;stroke-linecap:round;stroke-linejoin:round"></path><path d="M178.28,281.18s-50.92,16.2-52.79,19.93-19.29,71-19.29,71,6.22,8.09,9.64,10.58a14,14,0,0,0,15.57,0C137,378.92,144.48,364,144.48,364s10,75,10.27,76.26,5,5.92,12.45,8.1,40.78-10,59.14-15.26,33.62-7.16,40.46-8.4,9-4.05,7.79-9.65-1.25-17.43-1.25-17.43,13.07,10.27,15.25,4.67-9-27.39-14-48.56-6.85-48.55-16.19-53.22-45.75-14.94-45.75-14.94-25.31-6.16-33.36-3.86" style="fill:#407BFF;stroke:#263238;stroke-linecap:round;stroke-linejoin:round"></path><line x1="241.23" y1="331.59" x2="245.64" y2="376.43" style="fill:none;stroke:#263238;stroke-linecap:round;stroke-linejoin:round"></line><line x1="240.35" y1="322.59" x2="240.8" y2="327.23" style="fill:none;stroke:#263238;stroke-linecap:round;stroke-linejoin:round"></line><path d="M203.89,374.21c1.23.79,2.49,1.54,3.78,2.22" style="fill:none;stroke:#263238;stroke-linecap:round;stroke-linejoin:round"></path><path d="M184.63,356.83a94.47,94.47,0,0,0,17.16,16" style="fill:none;stroke:#263238;stroke-linecap:round;stroke-linejoin:round"></path><path d="M190.55,368.65a114.33,114.33,0,0,0,16.8,11.83" style="fill:none;stroke:#263238;stroke-linecap:round;stroke-linejoin:round"></path><path d="M237.41,425.26c3.56.22,6.76.35,9.16.35" style="fill:none;stroke:#263238;stroke-linecap:round;stroke-linejoin:round"></path><path d="M205.18,422.5S219.92,424,232.69,425" style="fill:none;stroke:#263238;stroke-linecap:round;stroke-linejoin:round"></path><path d="M183.08,424.68s20.54,4.05,36.72,4.05" style="fill:none;stroke:#263238;stroke-linecap:round;stroke-linejoin:round"></path><path d="M180.59,274.34s-5.75,11.94-5.3,17.12,8.1,13.7,19.61,14.63,20.86-6.54,22.1-10,3.12-14.32,3.12-14.32-14.32,3.74-25.84-2.8-13.38-7.47-13.38-7.47Z" style="fill:#407BFF;stroke:#263238;stroke-linecap:round;stroke-linejoin:round"></path><line x1="182.98" y1="301.96" x2="186.83" y2="289.81" style="fill:none;stroke:#263238;stroke-linecap:round;stroke-linejoin:round"></line><line x1="187.42" y1="288.03" x2="188.31" y2="284.78" style="fill:none;stroke:#263238;stroke-linecap:round;stroke-linejoin:round"></line><line x1="193.64" y1="295.44" x2="190.38" y2="305.22" style="fill:none;stroke:#263238;stroke-linecap:round;stroke-linejoin:round"></line><line x1="177.35" y1="296.33" x2="180.31" y2="287.15" style="fill:none;stroke:#263238;stroke-linecap:round;stroke-linejoin:round"></line><path d="M221.24,215s-8.44,12-18.48,16.88a135.07,135.07,0,0,1-20.5,7.63s-.4,5.63-2.41,6.43-4.42-2-4.42-2l-6,1.61a6.13,6.13,0,0,0-.4,6c1.61,3.22,6.43,4,6.43,4s3.22,15.67,6.83,20.5S198.74,290.5,208,289.3,232.49,272,232.89,266s1.21-18.48,1.61-24.91S236.11,231,233.29,227,221.24,215,221.24,215Z" style="fill:#fff;stroke:#263238;stroke-linecap:round;stroke-linejoin:round"></path><path d="M193.92,252.33s4,3.61,10.44,1.2" style="fill:none;stroke:#263238;stroke-linecap:round;stroke-linejoin:round"></path><path d="M217.62,253.94s6,2.81,9.65,0" style="fill:none;stroke:#263238;stroke-linecap:round;stroke-linejoin:round"></path><path d="M194.32,243.89s7.63-2.41,14.06,0" style="fill:none;stroke:#263238;stroke-linecap:round;stroke-linejoin:round;stroke-width:2px"></path><path d="M217.62,244.69s9.25-1.6,12.06,1.21" style="fill:none;stroke:#263238;stroke-linecap:round;stroke-linejoin:round;stroke-width:2px"></path><path d="M215.21,265.59s-3.61,2.41-7.23,1.2" style="fill:none;stroke:#263238;stroke-linecap:round;stroke-linejoin:round"></path><path d="M200.75,270.81A16.67,16.67,0,0,0,218,272" style="fill:none;stroke:#263238;stroke-linecap:round;stroke-linejoin:round"></path><path d="M286.1,397.6c-4.67-7.47-18.05-9-23-7.16s-10.58-.31-10.58-.31l-15.57,17.12s16.81,7.47,24.9,12.45,14.32,4.67,21.79-3.11,5-15.57,5-15.57" style="fill:#407BFF;stroke:#263238;stroke-linecap:round;stroke-linejoin:round"></path><path d="M238.48,392s-4.36,7.78-2.8,13.07,14,0,18.67-8.4S243.77,383.59,238.48,392Z" style="fill:#fff;stroke:#263238;stroke-linecap:round;stroke-linejoin:round"></path><path d="M242.27,346.06l-20.13,37.66a1.65,1.65,0,0,0,1.2,2.4L242.4,389a1.63,1.63,0,0,0,1.63-.74l23-36.57a1.65,1.65,0,0,0-1.1-2.49l-22-4A1.67,1.67,0,0,0,242.27,346.06Z" style="fill:#263238;stroke:#263238;stroke-linecap:round;stroke-linejoin:round"></path><path d="M245,398.53s-11.52-5.6-13.39-8.09-.62-3.73-.62-3.73-4-1.87-5.6-4.36,1.86-3.11,1.86-3.11l20.55,4s-10.9-4.36-13.08-4.36a2.79,2.79,0,0,1-2.8-3.73c.63-1.87,1.25-2.49,5.61-1.25s14.94,3.74,14.94,3.74-.32-2.8-1.25-3.42-9.34-3.43-11.2-5.3-.32-3.42,1.86-3.42,16.19,5,17.43,5.91,0,8.72,0,8.72,0,7.47-1.24,11.21S250,402.27,250,402.27" style="fill:#fff;stroke:#263238;stroke-linecap:round;stroke-linejoin:round"></path><line x1="231.01" y1="386.71" x2="246.26" y2="392.93" style="fill:none;stroke:#263238;stroke-linecap:round;stroke-linejoin:round"></line><line x1="247.82" y1="383.28" x2="255.6" y2="388.26" style="fill:none;stroke:#263238;stroke-linecap:round;stroke-linejoin:round"></line><path d="M252.49,377.68s3.73,1.56,5,3.11" style="fill:none;stroke:#263238;stroke-linecap:round;stroke-linejoin:round"></path><path d="M147,423.64v46.11A194.41,194.41,0,0,1,123.73,462V423.64Z" style="fill:#263238;stroke:#263238;stroke-linecap:round;stroke-linejoin:round"></path><rect x="115.69" y="398.23" width="38.96" height="31.34" rx="7.28" style="fill:#263238;stroke:#263238;stroke-linecap:round;stroke-linejoin:round"></rect><path d="M229.08,398.37c-12.23-6.23-48.42-10.74-91.17-10.74S59,392.14,46.75,398.37H42.32V403c0,8.49,42.8,15.37,95.59,15.37S233.5,411.49,233.5,403v-4.63Z" style="fill:#263238;stroke:#263238;stroke-linecap:round;stroke-linejoin:round"></path><ellipse cx="137.91" cy="398.37" rx="95.59" ry="15.37" style="fill:#fff;stroke:#263238;stroke-linecap:round;stroke-linejoin:round"></ellipse><path d="M165.61,294.36s-4.81-20.52-4.81-22.55,10.89-8.87,13.43-10.39,4.81.76,4.81.76a9.91,9.91,0,0,0,3.55,2c1.52.25,2.79,2,2.79,4.05s.5,9.38.5,11.15-2.79,3.8-4.31,3.8-1.26-3-1.26-3a4.88,4.88,0,0,1-2,1,5.4,5.4,0,0,0-1.52.26s1,11.4-1,15.2a35.22,35.22,0,0,0-2.79,6.59L136,381s-6.08,11.41-14.19,11.66-16-5.32-17-12.92,2.54-16.22,7.86-22.3S160.29,303.23,165.61,294.36Z" style="fill:#fff;stroke:#263238;stroke-linecap:round;stroke-linejoin:round"></path><path d="M176.76,281.44v-5.32l5.5-.08-3,5.65S178.53,280.68,176.76,281.44Z" style="fill:#fff;stroke:#263238;stroke-linecap:round;stroke-linejoin:round"></path><path d="M182.59,264.21s-11.15,5.06-12.93,6.58l-1.77,1.53" style="fill:none;stroke:#263238;stroke-linecap:round;stroke-linejoin:round"></path><path d="M179,262.18s-11.4,5.57-14.95,8.61" style="fill:none;stroke:#263238;stroke-linecap:round;stroke-linejoin:round"></path><path d="M162.57,269l.34-.37c1.57-1.7,8.11-8.75,8.78-8.75s2.54,1.52,2.54,1.52Z" style="fill:none;stroke:#263238;stroke-linecap:round;stroke-linejoin:round"></path><path d="M156.13,306.75c-14.35,17.54-39.46,46.11-43.48,50.71-5.32,6.08-8.87,14.69-7.86,22.3s8.87,13.17,17,12.92S136,381,136,381l31.68-66.6A55.92,55.92,0,0,1,156.13,306.75Z" style="fill:#407BFF;stroke:#263238;stroke-linecap:round;stroke-linejoin:round"></path></g><g id="freepik--Mug--inject-6"><path d="M75.73,334.71a10.17,10.17,0,0,0,.68,4.24c2.08,5.2,2.69,7.35,1.84,11.57" style="fill:none;stroke:#263238;stroke-linecap:round;stroke-miterlimit:10"></path><path d="M77.74,328.07a15.46,15.46,0,0,0-1.49,3.55" style="fill:none;stroke:#263238;stroke-linecap:round;stroke-miterlimit:10"></path><path d="M85.17,328.07s-3.45,5.57-1.32,10.88,2.68,7.35,1.84,11.57" style="fill:none;stroke:#263238;stroke-linecap:round;stroke-miterlimit:10"></path><path d="M93.49,347.45a17.25,17.25,0,0,1-.37,3.07" style="fill:none;stroke:#263238;stroke-linecap:round;stroke-miterlimit:10"></path><path d="M92.61,328.07s-3.45,5.57-1.33,10.88A47.42,47.42,0,0,1,93,343.67" style="fill:none;stroke:#263238;stroke-linecap:round;stroke-miterlimit:10"></path><path d="M99,361.77s3.44-3.45,6-.63,1.57,16.92-.63,21.3-7.22.23-7.22.23l0-3.05a3.32,3.32,0,0,0,4.75-.42c2.51-2.51,1.83-12.42.89-14s-4.7.63-4.7.63Z" style="fill:#fff;stroke:#263238;stroke-linecap:round;stroke-linejoin:round"></path><path d="M93,396H77.26a4.31,4.31,0,0,1-4.3-4l-2.69-37.76H100L97.33,392A4.3,4.3,0,0,1,93,396Z" style="fill:#fff;stroke:#263238;stroke-linecap:round;stroke-linejoin:round"></path></g><g id="freepik--Device--inject-6"><path d="M433.1,37.38H383.2l-.05.18c-1.48,5.32-4.88,8.77-8.65,8.77h-2.16c-3.77,0-7.17-3.45-8.65-8.77l-.05-.18h-49.9a25.16,25.16,0,0,0-25.16,25.17v285A14.44,14.44,0,0,0,303,362H443.83a14.45,14.45,0,0,0,14.44-14.44v-285A25.17,25.17,0,0,0,433.1,37.38Z" style="fill:#fff;stroke:#263238;stroke-linecap:round;stroke-linejoin:round"></path><path d="M300.59,108.13v.27h-1v-.32c0-.89-.34-1.41-1.13-1.41s-1.13.52-1.13,1.39c0,2.21,3.31,2.42,3.31,5.2,0,1.49-.72,2.46-2.22,2.46s-2.21-1-2.21-2.46v-.57h1v.62c0,.89.36,1.41,1.15,1.41s1.15-.52,1.15-1.41c0-2.19-3.29-2.4-3.29-5.18,0-1.52.7-2.46,2.18-2.46S300.59,106.64,300.59,108.13Z" style="fill:#263238"></path><path d="M302.66,111.19v4.43h-1.1v-9.85h1.1v4.43h2.42v-4.43h1.1v9.85h-1.1v-4.43Z" style="fill:#263238"></path><path d="M308.42,113.64l-.39,2h-1l1.89-9.85h1.59l1.88,9.85h-1.09l-.38-2Zm.14-1h2.19L309.64,107Z" style="fill:#263238"></path><path d="M315.44,105.77c1.55,0,2.19.79,2.19,2.25v.8c0,1.09-.37,1.76-1.22,2,.9.27,1.24,1,1.24,2.06v1.53a2.37,2.37,0,0,0,.2,1.18h-1.12a2.65,2.65,0,0,1-.18-1.19v-1.55c0-1.11-.52-1.47-1.44-1.47h-.77v4.21h-1.1v-9.85Zm-.28,4.64c.87,0,1.39-.28,1.39-1.35v-.94c0-.89-.32-1.35-1.14-1.35h-1.07v3.64Z" style="fill:#263238"></path><path d="M322.29,110.13v1h-2.4v3.5h2.95v1h-4v-9.85h4v1h-2.95v3.36Z" style="fill:#263238"></path><path d="M327.15,113.64l-.38,2h-1l1.88-9.85h1.59l1.89,9.85H330l-.38-2Zm.14-1h2.2L328.38,107Z" style="fill:#263238"></path><path d="M334.16,115.62v-9.85h1.1v8.85h2.81v1Z" style="fill:#263238"></path><path d="M340,105.77v9.85h-1.1v-9.85Z" style="fill:#263238"></path><path d="M342.1,115.62h-1v-9.85h1.4l2.28,7.12v-7.12h1v9.85h-1.14l-2.52-8Z" style="fill:#263238"></path><path d="M348.56,111.34l-.58,1v3.31h-1.09v-9.85H348v4.76l2.62-4.76h1.11l-2.49,4.49,2.58,5.36h-1.13Z" style="fill:#263238"></path><path d="M305.2,225.93v4.44h-1.1v-9.86h1.1V225h2.42v-4.44h1.1v9.86h-1.1v-4.44Z" style="fill:#263238"></path><path d="M311.26,230.37v-8.86h-1.81v-1h4.71v1h-1.81v8.86Z" style="fill:#263238"></path><path d="M316.33,230.37v-8.86h-1.81v-1h4.71v1h-1.81v8.86Z" style="fill:#263238"></path><path d="M322.13,220.51c1.55,0,2.21.92,2.21,2.41v1.18c0,1.57-.73,2.38-2.29,2.38h-1v3.89H320v-9.86Zm-.08,5c.81,0,1.21-.38,1.21-1.33v-1.3c0-.91-.33-1.36-1.13-1.36h-1.05v4Z" style="fill:#263238"></path><path d="M329.46,222.88v.27h-1v-.33c0-.88-.33-1.4-1.12-1.4s-1.13.52-1.13,1.39c0,2.21,3.31,2.42,3.31,5.19,0,1.5-.72,2.47-2.23,2.47s-2.2-1-2.2-2.47v-.56h1v.62c0,.89.37,1.41,1.16,1.41s1.15-.52,1.15-1.41c0-2.2-3.29-2.41-3.29-5.18,0-1.52.7-2.46,2.18-2.46S329.46,221.39,329.46,222.88Z" style="fill:#263238"></path><path d="M331.49,223.64V225h-1.05v-1.37Zm0,5.36v1.37h-1.05V229Z" style="fill:#263238"></path><path d="M337.12,220.51l-3.88,9.86h-1l3.88-9.86Z" style="fill:#263238"></path><path d="M339.88,220.51,336,230.37h-1l3.88-9.86Z" style="fill:#263238"></path><path d="M342.42,226.83l-2.09-6.32h1.14l1.54,4.85,1.55-4.85h1l-2.1,6.32v3.54h-1.08Z" style="fill:#263238"></path><path d="M346.09,222.89c0-1.5.75-2.47,2.25-2.47a2.16,2.16,0,0,1,2.27,2.47V228a2.17,2.17,0,0,1-2.27,2.48c-1.5,0-2.25-1-2.25-2.48Zm1.08,5.16c0,.9.38,1.42,1.17,1.42s1.17-.52,1.17-1.42v-5.21c0-.89-.37-1.42-1.17-1.42s-1.17.53-1.17,1.42Z" style="fill:#263238"></path><path d="M352.69,228.05c0,.88.35,1.42,1.16,1.42s1.14-.54,1.14-1.42v-7.54h1V228c0,1.49-.69,2.49-2.21,2.49s-2.19-1-2.19-2.49v-7.48h1.08Z" style="fill:#263238"></path><path d="M359.29,220.51c1.55,0,2.2.79,2.2,2.26v.8a1.84,1.84,0,0,1-1.23,2c.91.26,1.24,1,1.24,2.05v1.54a2.51,2.51,0,0,0,.2,1.18h-1.11a2.56,2.56,0,0,1-.18-1.2v-1.55c0-1.11-.53-1.46-1.44-1.46h-.77v4.21h-1.1v-9.86Zm-.28,4.65c.87,0,1.4-.28,1.4-1.35v-.94c0-.89-.33-1.36-1.14-1.36H358.2v3.65Z" style="fill:#263238"></path><path d="M362.64,230.37v-9.86h1.1v8.86h2.82v1Z" style="fill:#263238"></path><path d="M368.49,220.51v9.86h-1.1v-9.86Z" style="fill:#263238"></path><path d="M370.58,230.37h-1v-9.86H371l2.28,7.13v-7.13h1v9.86H373.1l-2.52-8Z" style="fill:#263238"></path><path d="M377,226.09l-.57,1v3.31h-1.1v-9.86h1.1v4.76l2.61-4.76h1.12l-2.49,4.5,2.57,5.36h-1.12Z" style="fill:#263238"></path><path d="M385.63,220.51l-3.88,9.86h-1l3.88-9.86Z" style="fill:#263238"></path><text transform="translate(424.76 230.37)" style="font-size:14.076910018920898px;fill:#407BFF;font-family:BebasNeueRegular, Bebas Neue">co<tspan x="10.83" y="0" style="letter-spacing:-0.002011827344348612em">p</tspan><tspan x="16.02" y="0">y</tspan></text><line x1="295.05" y1="255.99" x2="450.12" y2="255.99" style="fill:none;stroke:#263238;stroke-miterlimit:10"></line><circle cx="308.94" cy="134.3" r="10.8" style="fill:#263238;stroke:#263238;stroke-linecap:round;stroke-linejoin:round"></circle><circle cx="341.34" cy="134.3" r="10.8" style="fill:#407BFF;stroke:#263238;stroke-linecap:round;stroke-linejoin:round"></circle><circle cx="373.74" cy="134.3" r="10.8" style="fill:#263238;stroke:#263238;stroke-linecap:round;stroke-linejoin:round"></circle><circle cx="406.15" cy="134.3" r="10.8" style="fill:#407BFF;stroke:#263238;stroke-linecap:round;stroke-linejoin:round"></circle><circle cx="438.55" cy="134.3" r="10.8" style="fill:#263238;stroke:#263238;stroke-linecap:round;stroke-linejoin:round"></circle><line x1="299.68" y1="152.04" x2="318.19" y2="152.04" style="fill:none;stroke:#263238;stroke-miterlimit:10"></line><line x1="332.08" y1="152.04" x2="350.6" y2="152.04" style="fill:none;stroke:#263238;stroke-miterlimit:10"></line><line x1="364.49" y1="152.04" x2="383" y2="152.04" style="fill:none;stroke:#263238;stroke-miterlimit:10"></line><line x1="396.89" y1="152.04" x2="415.41" y2="152.04" style="fill:none;stroke:#263238;stroke-miterlimit:10"></line><line x1="429.29" y1="152.04" x2="447.81" y2="152.04" style="fill:none;stroke:#263238;stroke-miterlimit:10"></line><circle cx="308.94" cy="175.19" r="10.8" transform="translate(-32.09 76.04) rotate(-13.35)" style="fill:#407BFF;stroke:#263238;stroke-linecap:round;stroke-linejoin:round"></circle><circle cx="341.34" cy="175.19" r="10.8" transform="translate(49.54 424.3) rotate(-67.66)" style="fill:#263238;stroke:#263238;stroke-linecap:round;stroke-linejoin:round"></circle><circle cx="373.74" cy="175.19" r="10.8" transform="translate(69.62 454.27) rotate(-67.66)" style="fill:#407BFF;stroke:#263238;stroke-linecap:round;stroke-linejoin:round"></circle><circle cx="406.15" cy="175.19" r="10.8" transform="translate(-29.47 98.48) rotate(-13.35)" style="fill:#263238;stroke:#263238;stroke-linecap:round;stroke-linejoin:round"></circle><circle cx="438.55" cy="175.19" r="10.8" transform="translate(4.57 361.41) rotate(-45)" style="fill:#407BFF;stroke:#263238;stroke-linecap:round;stroke-linejoin:round"></circle><line x1="299.68" y1="192.93" x2="318.19" y2="192.93" style="fill:none;stroke:#263238;stroke-miterlimit:10"></line><line x1="332.08" y1="192.93" x2="350.6" y2="192.93" style="fill:none;stroke:#263238;stroke-miterlimit:10"></line><line x1="364.49" y1="192.93" x2="383" y2="192.93" style="fill:none;stroke:#263238;stroke-miterlimit:10"></line><line x1="396.89" y1="192.93" x2="415.41" y2="192.93" style="fill:none;stroke:#263238;stroke-miterlimit:10"></line><line x1="429.29" y1="192.93" x2="447.81" y2="192.93" style="fill:none;stroke:#263238;stroke-miterlimit:10"></line><rect x="294.28" y="215.1" width="156.62" height="22.37" style="fill:none;stroke:#263238;stroke-miterlimit:10"></rect><path d="M458.27,83.25V62.55A25.17,25.17,0,0,0,433.1,37.38H383.2l-.05.18c-1.48,5.32-4.88,8.77-8.65,8.77h-2.16c-3.77,0-7.17-3.45-8.65-8.77l-.05-.18h-49.9a25.16,25.16,0,0,0-25.16,25.17v20.7Z" style="fill:#c2c2c2;stroke:#263238;stroke-linecap:round;stroke-linejoin:round"></path><rect x="304.52" y="72.67" width="56.7" height="6.8" style="fill:#fff;stroke:#263238;stroke-linecap:round;stroke-linejoin:round"></rect><path d="M458.27,69.88V62.55A25.17,25.17,0,0,0,433.1,37.38H383.2l-.05.18c-1.48,5.32-4.88,8.77-8.65,8.77h-2.16c-3.77,0-7.17-3.45-8.65-8.77l-.05-.18h-49.9a25.16,25.16,0,0,0-25.16,25.17v7.33Z" style="fill:#fff;stroke:#263238;stroke-linecap:round;stroke-linejoin:round"></path><path d="M469.06,129.51V97.62h-2.88V56.79A25.16,25.16,0,0,0,441,31.63H305.83a25.15,25.15,0,0,0-25.16,25.16V351.24a25.16,25.16,0,0,0,25.16,25.17H441a25.17,25.17,0,0,0,25.17-25.17V156.69h2.88V137.85h-2.88v-8.34ZM458.27,333.27a25.16,25.16,0,0,1-25.17,25.16H313.74a25.15,25.15,0,0,1-25.16-25.16V62.55a25.16,25.16,0,0,1,25.16-25.17h49.9l.05.18c1.48,5.32,4.88,8.77,8.65,8.77h2.16c3.77,0,7.17-3.45,8.65-8.77l.05-.18h49.9a25.17,25.17,0,0,1,25.17,25.17Z" style="fill:#707070;stroke:#263238;stroke-linecap:round;stroke-linejoin:round"></path><path d="M436.6,35.09H310.24a26.67,26.67,0,0,0-26.66,26.67V346.28a26.66,26.66,0,0,0,26.66,26.66H436.6a26.65,26.65,0,0,0,26.66-26.66V61.76A26.66,26.66,0,0,0,436.6,35.09Zm21.67,298.18a25.16,25.16,0,0,1-25.17,25.16H313.74a25.15,25.15,0,0,1-25.16-25.16V62.55a25.16,25.16,0,0,1,25.16-25.17h49.9l.05.18c1.48,5.32,4.88,8.77,8.65,8.77h2.16c3.77,0,7.17-3.45,8.65-8.77l.05-.18h49.9a25.17,25.17,0,0,1,25.17,25.17Z" style="fill:#263238;stroke:#263238;stroke-linecap:round;stroke-linejoin:round"></path><path d="M375.27,38.59A2.37,2.37,0,1,0,372.9,41,2.37,2.37,0,0,0,375.27,38.59Z" style="fill:#707070"></path><path d="M303.66,47.64c0,2.39-2.69,3.25-2.7,5.07v.13h2.6v.8h-3.47V53c0-2.56,2.68-3.05,2.68-5.29,0-.81-.27-1.24-.93-1.24s-.93.46-.93,1.16v.71h-.82v-.65c0-1.21.55-2,1.78-2S303.66,46.43,303.66,47.64Z" style="fill:#263238"></path><path d="M308,47.63v.2a1.56,1.56,0,0,1-1,1.63,1.58,1.58,0,0,1,1,1.65v.61c0,1.21-.56,2-1.79,2s-1.77-.79-1.77-2v-.55h.82v.6c0,.72.3,1.15.93,1.15s.93-.42.93-1.23v-.61c0-.78-.33-1.15-1-1.17h-.47v-.8h.52c.59,0,.95-.39.95-1.09v-.36c0-.81-.28-1.23-.93-1.23s-.93.44-.93,1.15V48h-.82v-.36c0-1.21.56-2,1.77-2S308,46.42,308,47.63Z" style="fill:#263238"></path><path d="M309.71,48.23v1.1h-.85v-1.1Zm0,4.31v1.1h-.85v-1.1Z" style="fill:#263238"></path><path d="M311.5,48.94a1.27,1.27,0,0,1,1.18-.65c1,0,1.47.74,1.47,1.88v1.55c0,1.21-.58,2-1.79,2s-1.78-.79-1.78-2v-.53h.83v.58c0,.72.29,1.15.93,1.15s.92-.43.92-1.15V50.23c0-.71-.29-1.14-.92-1.14a.86.86,0,0,0-.9.85v.18h-.83l.22-4.41H314v.8h-2.34Z" style="fill:#263238"></path><path d="M318.56,47.62v.14h-.83v-.2c0-.71-.3-1.13-.94-1.13s-1,.43-1,1.28v1.78a1.26,1.26,0,0,1,1.28-.85c1,0,1.47.73,1.47,1.88v1.2c0,1.21-.6,2-1.81,2s-1.83-.79-1.83-2v-4c0-1.25.57-2,1.83-2S318.56,46.4,318.56,47.62Zm-2.73,3v1.19c0,.72.29,1.15.94,1.15s.94-.43.94-1.15V50.58c0-.71-.31-1.14-.94-1.14S315.83,49.87,315.83,50.58Z" style="fill:#263238"></path><rect x="402.88" y="47.97" width="2.24" height="5.6" style="fill:#263238"></rect><rect x="405.87" y="46.84" width="2.24" height="6.72" style="fill:#263238"></rect><rect x="408.85" y="46.05" width="2.24" height="7.51" style="fill:#263238"></rect><rect x="411.84" y="44.66" width="2.24" height="8.9" style="fill:#263238"></rect><path d="M441.79,53.41H428.35V45.2h13.44Zm-12.69-.75H441V46H429.1Z" style="fill:#263238"></path><rect x="430.22" y="46.76" width="7.09" height="5.09" style="fill:#263238"></rect><rect x="441.32" y="48.34" width="1.69" height="1.93" style="fill:#263238"></rect><path d="M423.43,51.62a.48.48,0,0,1-.26-.07c-2.73-1.62-4.54-.11-4.62,0a.5.5,0,0,1-.66-.75c.1-.09,2.41-2.07,5.79-.06a.51.51,0,0,1,.18.69A.5.5,0,0,1,423.43,51.62Z" style="fill:#263238"></path><path d="M424.44,49.94a.59.59,0,0,1-.26-.07c-3.95-2.35-6.61-.08-6.64-.06a.5.5,0,0,1-.66-.75s3.24-2.78,7.81-.06a.5.5,0,0,1-.25.94Z" style="fill:#263238"></path><path d="M425.36,48a.48.48,0,0,1-.26-.07c-5-3-8.34-.17-8.48,0a.49.49,0,0,1-.7,0,.5.5,0,0,1,0-.7s4-3.42,9.65-.06a.51.51,0,0,1,.18.69A.5.5,0,0,1,425.36,48Z" style="fill:#263238"></path><path d="M421.92,52.46a1.26,1.26,0,1,1-1.26-1.25A1.26,1.26,0,0,1,421.92,52.46Z" style="fill:#263238"></path></g></svg>