<svg id="visual" viewBox="0 0 900 900" width="900" height="900" xmlns="http://www.w3.org/2000/svg" xmlns:xlink="http://www.w3.org/1999/xlink" version="1.1"><rect x="0" y="0" width="900" height="900" fill="#0284c7"></rect><path d="M0 626L21.5 621.2C43 616.3 86 606.7 128.8 600.3C171.7 594 214.3 591 257.2 613C300 635 343 682 385.8 694.8C428.7 707.7 471.3 686.3 514.2 684.5C557 682.7 600 700.3 642.8 709.3C685.7 718.3 728.3 718.7 771.2 702.3C814 686 857 653 878.5 636.5L900 620L900 901L878.5 901C857 901 814 901 771.2 901C728.3 901 685.7 901 642.8 901C600 901 557 901 514.2 901C471.3 901 428.7 901 385.8 901C343 901 300 901 257.2 901C214.3 901 171.7 901 128.8 901C86 901 43 901 21.5 901L0 901Z" fill="#60A5FA" stroke-linecap="round" stroke-linejoin="miter"></path></svg>