<svg id="visual" viewBox="0 0 900 450" width="900" height="450" xmlns="http://www.w3.org/2000/svg" xmlns:xlink="http://www.w3.org/1999/xlink" version="1.1"><rect x="0" y="0" width="900" height="450" fill="#fafafa"></rect><path d="M0 139L21.5 142.5C43 146 86 153 128.8 151.8C171.7 150.7 214.3 141.3 257.2 130.8C300 120.3 343 108.7 385.8 106.7C428.7 104.7 471.3 112.3 514.2 112C557 111.7 600 103.3 642.8 97.7C685.7 92 728.3 89 771.2 103.3C814 117.7 857 149.3 878.5 165.2L900 181L900 451L878.5 451C857 451 814 451 771.2 451C728.3 451 685.7 451 642.8 451C600 451 557 451 514.2 451C471.3 451 428.7 451 385.8 451C343 451 300 451 257.2 451C214.3 451 171.7 451 128.8 451C86 451 43 451 21.5 451L0 451Z" fill="#2a303c"></path><path d="M0 171L21.5 187.5C43 204 86 237 128.8 233.2C171.7 229.3 214.3 188.7 257.2 170.8C300 153 343 158 385.8 158C428.7 158 471.3 153 514.2 167C557 181 600 214 642.8 224.8C685.7 235.7 728.3 224.3 771.2 217.2C814 210 857 207 878.5 205.5L900 204L900 451L878.5 451C857 451 814 451 771.2 451C728.3 451 685.7 451 642.8 451C600 451 557 451 514.2 451C471.3 451 428.7 451 385.8 451C343 451 300 451 257.2 451C214.3 451 171.7 451 128.8 451C86 451 43 451 21.5 451L0 451Z" fill="#2a303c"></path><path d="M0 302L21.5 291.3C43 280.7 86 259.3 128.8 247.7C171.7 236 214.3 234 257.2 239.7C300 245.3 343 258.7 385.8 257.8C428.7 257 471.3 242 514.2 231.3C557 220.7 600 214.3 642.8 218C685.7 221.7 728.3 235.3 771.2 241.5C814 247.7 857 246.3 878.5 245.7L900 245L900 451L878.5 451C857 451 814 451 771.2 451C728.3 451 685.7 451 642.8 451C600 451 557 451 514.2 451C471.3 451 428.7 451 385.8 451C343 451 300 451 257.2 451C214.3 451 171.7 451 128.8 451C86 451 43 451 21.5 451L0 451Z" fill="#2a303c"></path><path d="M0 347L21.5 345.8C43 344.7 86 342.3 128.8 343C171.7 343.7 214.3 347.3 257.2 349.8C300 352.3 343 353.7 385.8 347.7C428.7 341.7 471.3 328.3 514.2 316.3C557 304.3 600 293.7 642.8 291.8C685.7 290 728.3 297 771.2 302.3C814 307.7 857 311.3 878.5 313.2L900 315L900 451L878.5 451C857 451 814 451 771.2 451C728.3 451 685.7 451 642.8 451C600 451 557 451 514.2 451C471.3 451 428.7 451 385.8 451C343 451 300 451 257.2 451C214.3 451 171.7 451 128.8 451C86 451 43 451 21.5 451L0 451Z" fill="#2a303c"></path><path d="M0 362L21.5 366.7C43 371.3 86 380.7 128.8 383C171.7 385.3 214.3 380.7 257.2 381C300 381.3 343 386.7 385.8 382.5C428.7 378.3 471.3 364.7 514.2 367C557 369.3 600 387.7 642.8 389.7C685.7 391.7 728.3 377.3 771.2 371.8C814 366.3 857 369.7 878.5 371.3L900 373L900 451L878.5 451C857 451 814 451 771.2 451C728.3 451 685.7 451 642.8 451C600 451 557 451 514.2 451C471.3 451 428.7 451 385.8 451C343 451 300 451 257.2 451C214.3 451 171.7 451 128.8 451C86 451 43 451 21.5 451L0 451Z" fill="#2a303c"></path></svg>